<svg id="visual" viewBox="0 0 960 200" width="960" height="200" xmlns="http://www.w3.org/2000/svg" xmlns:xlink="http://www.w3.org/1999/xlink" version="1.1"><rect x="0" y="0" width="960" height="200" fill="#092327"></rect><path d="M0 139L14.5 135.3C29 131.7 58 124.3 87.2 122C116.3 119.7 145.7 122.3 174.8 118.2C204 114 233 103 262 100.8C291 98.7 320 105.3 349 108C378 110.7 407 109.3 436.2 115.3C465.3 121.3 494.7 134.7 523.8 136.3C553 138 582 128 611 121.2C640 114.3 669 110.7 698 109.7C727 108.7 756 110.3 785.2 110.3C814.3 110.3 843.7 108.7 872.8 105.3C902 102 931 97 945.5 94.5L960 92L960 201L945.5 201C931 201 902 201 872.8 201C843.7 201 814.3 201 785.2 201C756 201 727 201 698 201C669 201 640 201 611 201C582 201 553 201 523.8 201C494.7 201 465.3 201 436.2 201C407 201 378 201 349 201C320 201 291 201 262 201C233 201 204 201 174.8 201C145.7 201 116.3 201 87.2 201C58 201 29 201 14.5 201L0 201Z" fill="#358f80"></path><path d="M0 159L14.5 159.8C29 160.7 58 162.3 87.2 156.2C116.3 150 145.7 136 174.8 129.7C204 123.3 233 124.7 262 125.3C291 126 320 126 349 131.8C378 137.7 407 149.3 436.2 148C465.3 146.7 494.7 132.3 523.8 127.7C553 123 582 128 611 127.8C640 127.7 669 122.3 698 120C727 117.7 756 118.3 785.2 125C814.3 131.7 843.7 144.3 872.8 145.2C902 146 931 135 945.5 129.5L960 124L960 201L945.5 201C931 201 902 201 872.8 201C843.7 201 814.3 201 785.2 201C756 201 727 201 698 201C669 201 640 201 611 201C582 201 553 201 523.8 201C494.7 201 465.3 201 436.2 201C407 201 378 201 349 201C320 201 291 201 262 201C233 201 204 201 174.8 201C145.7 201 116.3 201 87.2 201C58 201 29 201 14.5 201L0 201Z" fill="#268178"></path><path d="M0 149L14.5 147.7C29 146.3 58 143.7 87.2 146C116.3 148.3 145.7 155.7 174.8 156.7C204 157.7 233 152.3 262 153.3C291 154.3 320 161.7 349 164.8C378 168 407 167 436.2 164.3C465.3 161.7 494.7 157.3 523.8 156.2C553 155 582 157 611 157.2C640 157.3 669 155.7 698 152.5C727 149.3 756 144.7 785.2 146.5C814.3 148.3 843.7 156.7 872.8 162C902 167.3 931 169.7 945.5 170.8L960 172L960 201L945.5 201C931 201 902 201 872.8 201C843.7 201 814.3 201 785.2 201C756 201 727 201 698 201C669 201 640 201 611 201C582 201 553 201 523.8 201C494.7 201 465.3 201 436.2 201C407 201 378 201 349 201C320 201 291 201 262 201C233 201 204 201 174.8 201C145.7 201 116.3 201 87.2 201C58 201 29 201 14.5 201L0 201Z" fill="#16736f"></path><path d="M0 179L14.5 176.7C29 174.3 58 169.7 87.2 169.7C116.3 169.7 145.7 174.3 174.8 173.5C204 172.7 233 166.3 262 166.8C291 167.3 320 174.7 349 177.7C378 180.7 407 179.3 436.2 175.8C465.3 172.3 494.7 166.7 523.8 167.7C553 168.7 582 176.3 611 176.2C640 176 669 168 698 167.7C727 167.3 756 174.7 785.2 176.3C814.3 178 843.7 174 872.8 170.3C902 166.7 931 163.3 945.5 161.7L960 160L960 201L945.5 201C931 201 902 201 872.8 201C843.7 201 814.3 201 785.2 201C756 201 727 201 698 201C669 201 640 201 611 201C582 201 553 201 523.8 201C494.7 201 465.3 201 436.2 201C407 201 378 201 349 201C320 201 291 201 262 201C233 201 204 201 174.8 201C145.7 201 116.3 201 87.2 201C58 201 29 201 14.5 201L0 201Z" fill="#036666"></path></svg>