<svg id="visual" viewBox="0 0 360 640" width="360" height="640" xmlns="http://www.w3.org/2000/svg" xmlns:xlink="http://www.w3.org/1999/xlink" version="1.1"><rect x="0" y="0" width="360" height="640" fill="#011b10"></rect><defs><linearGradient id="grad1_0" x1="0%" y1="0%" x2="100%" y2="100%"><stop offset="30%" stop-color="#13481e" stop-opacity="1"></stop><stop offset="70%" stop-color="#13481e" stop-opacity="1"></stop></linearGradient></defs><defs><linearGradient id="grad1_1" x1="0%" y1="0%" x2="100%" y2="100%"><stop offset="30%" stop-color="#13481e" stop-opacity="1"></stop><stop offset="70%" stop-color="#09381c" stop-opacity="1"></stop></linearGradient></defs><defs><linearGradient id="grad1_2" x1="0%" y1="0%" x2="100%" y2="100%"><stop offset="30%" stop-color="#052917" stop-opacity="1"></stop><stop offset="70%" stop-color="#09381c" stop-opacity="1"></stop></linearGradient></defs><defs><linearGradient id="grad1_3" x1="0%" y1="0%" x2="100%" y2="100%"><stop offset="30%" stop-color="#052917" stop-opacity="1"></stop><stop offset="70%" stop-color="#011b10" stop-opacity="1"></stop></linearGradient></defs><defs><linearGradient id="grad2_0" x1="0%" y1="0%" x2="100%" y2="100%"><stop offset="30%" stop-color="#13481e" stop-opacity="1"></stop><stop offset="70%" stop-color="#13481e" stop-opacity="1"></stop></linearGradient></defs><defs><linearGradient id="grad2_1" x1="0%" y1="0%" x2="100%" y2="100%"><stop offset="30%" stop-color="#09381c" stop-opacity="1"></stop><stop offset="70%" stop-color="#13481e" stop-opacity="1"></stop></linearGradient></defs><defs><linearGradient id="grad2_2" x1="0%" y1="0%" x2="100%" y2="100%"><stop offset="30%" stop-color="#09381c" stop-opacity="1"></stop><stop offset="70%" stop-color="#052917" stop-opacity="1"></stop></linearGradient></defs><defs><linearGradient id="grad2_3" x1="0%" y1="0%" x2="100%" y2="100%"><stop offset="30%" stop-color="#011b10" stop-opacity="1"></stop><stop offset="70%" stop-color="#052917" stop-opacity="1"></stop></linearGradient></defs><g transform="translate(360, 0)"><path d="M0 306C-27.8 306.7 -55.5 307.5 -79.2 295.6C-102.9 283.7 -122.5 259.1 -137 237.3C-151.5 215.5 -160.9 196.5 -184.6 184.6C-208.2 172.6 -245.9 167.7 -257.2 148.5C-268.5 129.3 -253.2 96 -256.9 68.8C-260.6 41.7 -283.3 20.9 -306 0L0 0Z" fill="#052214"></path><path d="M0 229.5C-20.8 230.1 -41.6 230.6 -59.4 221.7C-77.2 212.7 -91.9 194.3 -102.7 178C-113.6 161.6 -120.7 147.4 -138.4 138.4C-156.1 129.4 -184.5 125.7 -192.9 111.4C-201.4 97 -189.9 72 -192.7 51.6C-195.5 31.3 -212.5 15.6 -229.5 0L0 0Z" fill="#07311a"></path><path d="M0 153C-13.9 153.4 -27.8 153.7 -39.6 147.8C-51.4 141.8 -61.2 129.5 -68.5 118.6C-75.8 107.8 -80.5 98.3 -92.3 92.3C-104.1 86.3 -123 83.8 -128.6 74.3C-134.2 64.7 -126.6 48 -128.5 34.4C-130.3 20.9 -141.7 10.4 -153 0L0 0Z" fill="#0d401d"></path><path d="M0 76.5C-6.9 76.7 -13.9 76.9 -19.8 73.9C-25.7 70.9 -30.6 64.8 -34.2 59.3C-37.9 53.9 -40.2 49.1 -46.1 46.1C-52 43.1 -61.5 41.9 -64.3 37.1C-67.1 32.3 -63.3 24 -64.2 17.2C-65.2 10.4 -70.8 5.2 -76.5 0L0 0Z" fill="#13481e"></path></g><g transform="translate(0, 640)"><path d="M0 -306C26.4 -304.7 52.7 -303.4 79.2 -295.6C105.7 -287.7 132.2 -273.3 142 -246C151.8 -218.6 144.8 -178.4 161.9 -161.9C179 -145.4 220.3 -152.6 246.8 -142.5C273.4 -132.4 285.3 -105 292.7 -78.4C300.1 -51.8 303 -25.9 306 0L0 0Z" fill="#052214"></path><path d="M0 -229.5C19.8 -228.5 39.6 -227.6 59.4 -221.7C79.2 -215.8 99.2 -205 106.5 -184.5C113.8 -164 108.6 -133.8 121.4 -121.4C134.3 -109.1 165.2 -114.4 185.1 -106.9C205 -99.3 213.9 -78.8 219.5 -58.8C225.1 -38.8 227.3 -19.4 229.5 0L0 0Z" fill="#07311a"></path><path d="M0 -153C13.2 -152.4 26.4 -151.7 39.6 -147.8C52.8 -143.9 66.1 -136.6 71 -123C75.9 -109.3 72.4 -89.2 81 -81C89.5 -72.7 110.1 -76.3 123.4 -71.3C136.7 -66.2 142.6 -52.5 146.3 -39.2C150 -25.9 151.5 -12.9 153 0L0 0Z" fill="#0d401d"></path><path d="M0 -76.5C6.6 -76.2 13.2 -75.9 19.8 -73.9C26.4 -71.9 33.1 -68.3 35.5 -61.5C37.9 -54.7 36.2 -44.6 40.5 -40.5C44.8 -36.4 55.1 -38.1 61.7 -35.6C68.3 -33.1 71.3 -26.3 73.2 -19.6C75 -12.9 75.8 -6.5 76.5 0L0 0Z" fill="#13481e"></path></g></svg>