<svg id="visual" viewBox="0 0 900 450" width="900" height="450" xmlns="http://www.w3.org/2000/svg" xmlns:xlink="http://www.w3.org/1999/xlink" version="1.1"><rect width="900" height="450" fill="#092327"></rect><g><g transform="translate(454 409)"><path d="M58 -56.4C76.3 -39.7 93.2 -19.8 92.1 -1.1C91 17.6 71.9 35.2 53.6 49.4C35.2 63.6 17.6 74.4 -1.4 75.9C-20.5 77.3 -41 69.4 -55 55.2C-69 41 -76.6 20.5 -79.7 -3.1C-82.8 -26.7 -81.4 -53.4 -67.4 -70.1C-53.4 -86.9 -26.7 -93.8 -3.4 -90.3C19.8 -86.9 39.7 -73.2 58 -56.4Z" fill="none" stroke="#07434d" stroke-width="12"></path></g><g transform="translate(44 83)"><path d="M36.9 -36.4C45.8 -27.9 49.8 -14 48.7 -1C47.7 12 41.8 23.9 32.8 33.6C23.9 43.2 12 50.6 0.1 50.5C-11.7 50.4 -23.4 42.7 -30.9 33.1C-38.5 23.4 -41.8 11.7 -42.8 -1C-43.8 -13.7 -42.4 -27.4 -34.9 -35.9C-27.4 -44.4 -13.7 -47.7 0.1 -47.8C14 -48 27.9 -44.9 36.9 -36.4Z" fill="none" stroke="#07434d" stroke-width="12"></path></g><g transform="translate(88 342)"><path d="M18.7 -18.2C23.8 -13.7 27.1 -6.8 27.3 0.2C27.5 7.2 24.6 14.5 19.6 19.8C14.5 25.1 7.2 28.5 -0.2 28.6C-7.6 28.8 -15.2 25.8 -20.2 20.5C-25.2 15.2 -27.7 7.6 -27.7 0C-27.7 -7.5 -25.1 -15 -20.1 -19.6C-15 -24.2 -7.5 -25.8 -0.3 -25.5C6.8 -25.1 13.7 -22.8 18.7 -18.2Z" fill="none" stroke="#07434d" stroke-width="12"></path></g><g transform="translate(389 106)"><path d="M11 -12C13 -8.9 12.7 -4.4 12.4 -0.3C12.1 3.8 11.7 7.6 9.7 10.8C7.6 13.9 3.8 16.4 0.5 16C-2.9 15.5 -5.7 12 -8.6 8.9C-11.5 5.7 -14.5 2.9 -14.6 -0.1C-14.8 -3.1 -12.1 -6.2 -9.1 -9.3C-6.2 -12.4 -3.1 -15.5 0.7 -16.1C4.4 -16.8 8.9 -15.1 11 -12Z" fill="none" stroke="#07434d" stroke-width="12"></path></g><g transform="translate(850 152)"><path d="M27 -28.6C33.7 -20.3 37 -10.1 38.3 1.3C39.6 12.8 38.9 25.5 32.2 33.6C25.5 41.7 12.8 45.1 -0.1 45.1C-12.9 45.2 -25.8 41.9 -33.1 33.8C-40.5 25.8 -42.4 12.9 -41 1.4C-39.6 -10.2 -35 -20.3 -27.7 -28.6C-20.3 -36.9 -10.2 -43.4 0 -43.4C10.1 -43.4 20.3 -36.9 27 -28.6Z" fill="none" stroke="#07434d" stroke-width="12"></path></g><g transform="translate(607 11)"><path d="M18.5 -18.3C23.8 -13.2 27.8 -6.6 28.9 1.1C30.1 8.9 28.3 17.7 23 24.3C17.7 30.8 8.9 35.1 0.4 34.7C-8.1 34.3 -16.2 29.3 -20.9 22.8C-25.6 16.2 -26.9 8.1 -27.1 -0.2C-27.4 -8.5 -26.5 -17.1 -21.8 -22.2C-17.1 -27.3 -8.5 -28.9 -1 -27.9C6.6 -27 13.2 -23.4 18.5 -18.3Z" fill="none" stroke="#07434d" stroke-width="12"></path></g><g transform="translate(880 405)"><path d="M34.7 -32.2C44.7 -24.7 52.3 -12.3 52.3 -0.1C52.2 12.2 44.4 24.4 34.4 32C24.4 39.6 12.2 42.6 -0.2 42.8C-12.6 43 -25.3 40.5 -33.9 32.9C-42.5 25.3 -47 12.6 -46.7 0.3C-46.4 -12 -41.2 -24 -32.6 -31.5C-24 -39 -12 -42 0.2 -42.1C12.3 -42.3 24.7 -39.7 34.7 -32.2Z" fill="none" stroke="#07434d" stroke-width="12"></path></g><g transform="translate(646 271)"><path d="M62.9 -62.6C78.9 -47 87.3 -23.5 87.7 0.4C88.2 24.4 80.7 48.8 64.7 65.5C48.8 82.3 24.4 91.4 -0.2 91.6C-24.8 91.8 -49.6 83.1 -65.5 66.3C-81.4 49.6 -88.3 24.8 -88.1 0.2C-87.9 -24.4 -80.5 -48.8 -64.6 -64.4C-48.8 -80 -24.4 -86.9 -0.4 -86.5C23.5 -86.1 47 -78.3 62.9 -62.6Z" fill="none" stroke="#07434d" stroke-width="12"></path></g></g></svg>