<svg id="visual" viewBox="0 0 1080 450" width="1080" height="450" xmlns="http://www.w3.org/2000/svg" xmlns:xlink="http://www.w3.org/1999/xlink" version="1.1"><rect width="1080" height="450" fill="#092327"></rect><g><g transform="translate(46 419)"><path d="M17.6 -16.9C21 -14.2 20.8 -7.1 19 -1.9C17.1 3.4 13.6 6.7 10.1 9.3C6.7 11.9 3.4 13.8 -1.1 15C-5.6 16.1 -11.2 16.5 -13.3 13.8C-15.5 11.2 -14.1 5.6 -14.7 -0.6C-15.3 -6.9 -17.9 -13.7 -15.8 -16.4C-13.7 -19.1 -6.9 -17.7 0.1 -17.8C7.1 -18 14.2 -19.6 17.6 -16.9Z" fill="none" stroke="#07434d" stroke-width="7"></path></g><g transform="translate(531 442)"><path d="M2.6 -2.1C3.4 -1.8 4.2 -0.9 4 -0.2C3.8 0.5 2.7 1.1 1.9 1.8C1.1 2.6 0.5 3.5 0 3.5C-0.5 3.5 -1 2.5 -1.4 1.7C-1.8 1 -2.2 0.5 -2.2 -0.1C-2.3 -0.6 -2.1 -1.2 -1.6 -1.6C-1.2 -1.9 -0.6 -2 0.1 -2.2C0.9 -2.3 1.8 -2.5 2.6 -2.1Z" fill="none" stroke="#07434d" stroke-width="7"></path></g><g transform="translate(1020 420)"><path d="M8.1 -8.1C9.8 -6.3 10 -3.2 10.8 0.8C11.6 4.7 12.9 9.5 11.2 12.2C9.5 15 4.7 15.8 1.4 14.3C-1.9 12.9 -3.8 9.3 -6.7 6.6C-9.6 3.8 -13.5 1.9 -15 -1.5C-16.5 -4.9 -15.5 -9.7 -12.6 -11.5C-9.7 -13.3 -4.9 -12 -0.8 -11.1C3.2 -10.3 6.3 -9.9 8.1 -8.1Z" fill="none" stroke="#07434d" stroke-width="7"></path></g><g transform="translate(607 233)"><path d="M4.6 -5.5C5.8 -3.4 6.4 -1.7 6.6 0.1C6.7 2 6.3 3.9 5.1 5.4C3.9 6.8 2 7.8 -0.4 8.1C-2.7 8.5 -5.4 8.3 -7.2 6.9C-9 5.4 -9.8 2.7 -9.3 0.4C-8.9 -1.8 -7.2 -3.7 -5.4 -5.8C-3.7 -7.9 -1.8 -10.2 -0.1 -10.2C1.7 -10.1 3.4 -7.6 4.6 -5.5Z" fill="none" stroke="#07434d" stroke-width="7"></path></g><g transform="translate(60 142)"><path d="M2.6 -2.8C3 -2.1 2.9 -1.1 2.9 0C2.8 1 2.9 2 2.4 2.9C2 3.8 1 4.6 -0.1 4.7C-1.2 4.8 -2.3 4.1 -3.2 3.2C-4 2.3 -4.6 1.2 -4.6 0C-4.5 -1.1 -3.9 -2.2 -3.1 -2.8C-2.2 -3.5 -1.1 -3.7 0 -3.7C1.1 -3.6 2.1 -3.4 2.6 -2.8Z" fill="none" stroke="#07434d" stroke-width="7"></path></g><g transform="translate(716 170)"><path d="M9.7 -9.4C11.8 -7.6 12.2 -3.8 12.2 0.1C12.3 3.9 12 7.9 10 10.2C7.9 12.5 3.9 13.2 0.1 13.1C-3.7 13 -7.5 12.1 -9.1 9.8C-10.8 7.5 -10.4 3.7 -9.5 0.9C-8.7 -2 -7.4 -4.1 -5.7 -5.9C-4.1 -7.6 -2 -9.2 0.9 -10.1C3.8 -11 7.6 -11.2 9.7 -9.4Z" fill="none" stroke="#07434d" stroke-width="7"></path></g><g transform="translate(60 284)"><path d="M3 -3.1C3.5 -2.5 3.3 -1.2 3.2 -0.2C3 0.9 2.9 1.8 2.3 2.7C1.8 3.6 0.9 4.5 0.1 4.4C-0.7 4.3 -1.4 3.2 -2.1 2.3C-2.8 1.4 -3.4 0.7 -3.4 0C-3.4 -0.7 -2.8 -1.5 -2.1 -2C-1.5 -2.6 -0.7 -3 0.3 -3.3C1.2 -3.5 2.5 -3.6 3 -3.1Z" fill="none" stroke="#07434d" stroke-width="7"></path></g><g transform="translate(450 367)"><path d="M12 -11.2C14.5 -9.4 14.8 -4.7 14.3 -0.5C13.7 3.7 12.4 7.4 9.9 9.8C7.4 12.3 3.7 13.4 0.3 13.1C-3 12.8 -6.1 10.9 -9.3 8.5C-12.5 6.1 -16 3 -17.5 -1.5C-18.9 -5.9 -18.4 -11.9 -15.1 -13.6C-11.9 -15.4 -5.9 -12.9 -0.6 -12.2C4.7 -11.6 9.4 -12.9 12 -11.2Z" stroke="#07434d" fill="none" stroke-width="7"></path></g><g transform="translate(365 142)"><path d="M5.4 -4.7C7.5 -3.2 10.2 -1.6 10.3 0C10.3 1.7 7.7 3.4 5.5 4.7C3.4 6 1.7 6.9 -0.3 7.2C-2.3 7.5 -4.5 7.1 -6.8 5.8C-9.1 4.5 -11.3 2.3 -11.3 0C-11.4 -2.3 -9.1 -4.6 -6.9 -6.1C-4.6 -7.6 -2.3 -8.3 -0.3 -7.9C1.6 -7.6 3.2 -6.2 5.4 -4.7Z" stroke="#07434d" fill="none" stroke-width="7"></path></g><g transform="translate(387 317)"><path d="M5.4 -6.7C6.4 -4.4 6.3 -2.2 6.8 0.5C7.2 3.1 8.3 6.3 7.3 7.4C6.3 8.5 3.1 7.6 0.4 7.2C-2.2 6.7 -4.5 6.7 -5.8 5.6C-7.2 4.5 -7.6 2.2 -7.4 0.2C-7.1 -1.8 -6.2 -3.5 -4.9 -5.9C-3.5 -8.2 -1.8 -11.1 0.2 -11.3C2.2 -11.5 4.4 -9 5.4 -6.7Z" stroke="#07434d" fill="none" stroke-width="7"></path></g><g transform="translate(842 445)"><path d="M7.6 -6.8C9.6 -5.5 11 -2.7 11 0C11 2.7 9.5 5.4 7.5 6.6C5.4 7.9 2.7 7.6 -0.3 8C-3.3 8.3 -6.7 9.2 -8.5 7.9C-10.3 6.7 -10.6 3.3 -10 0.6C-9.5 -2.2 -8.1 -4.5 -6.3 -5.8C-4.5 -7.1 -2.2 -7.4 0.3 -7.7C2.7 -7.9 5.5 -8.1 7.6 -6.8Z" stroke="#07434d" fill="none" stroke-width="7"></path></g><g transform="translate(278 388)"><path d="M3.2 -3.1C4.3 -2.1 5.4 -1.1 5.7 0.3C6 1.6 5.4 3.3 4.3 4.5C3.3 5.8 1.6 6.7 0.1 6.6C-1.4 6.4 -2.8 5.3 -4.3 4C-5.9 2.8 -7.6 1.4 -8 -0.4C-8.4 -2.2 -7.5 -4.4 -6 -5.4C-4.4 -6.5 -2.2 -6.3 -0.6 -5.7C1.1 -5.1 2.1 -4.2 3.2 -3.1Z" stroke="#07434d" fill="none" stroke-width="7"></path></g><g transform="translate(170 228)"><path d="M8.2 -8.5C10.3 -6.2 11.2 -3.1 10.6 -0.6C10.1 1.9 7.9 3.8 5.9 4.9C3.8 6 1.9 6.3 -0.6 6.9C-3.1 7.5 -6.3 8.4 -8.3 7.3C-10.4 6.3 -11.4 3.1 -11.1 0.3C-10.9 -2.6 -9.3 -5.2 -7.2 -7.5C-5.2 -9.8 -2.6 -11.9 0.3 -12.2C3.1 -12.5 6.2 -10.9 8.2 -8.5Z" stroke="#07434d" fill="none" stroke-width="7"></path></g><g transform="translate(852 220)"><path d="M5 -4.1C7.1 -2.9 10 -1.4 10.3 0.3C10.6 2.1 8.5 4.2 6.3 5.5C4.2 6.8 2.1 7.3 0.3 6.9C-1.4 6.6 -2.8 5.4 -3.8 4.1C-4.7 2.8 -5.1 1.4 -5.3 -0.3C-5.6 -2 -5.8 -3.9 -4.9 -5.2C-3.9 -6.5 -2 -7 -0.3 -6.7C1.4 -6.5 2.9 -5.4 5 -4.1Z" stroke="#07434d" fill="none" stroke-width="7"></path></g><g transform="translate(545 117)"><path d="M5.5 -5.3C6.9 -4 7.8 -2 8.8 1C9.7 3.9 10.8 7.8 9.3 9.1C7.8 10.3 3.9 8.8 0.1 8.7C-3.7 8.6 -7.3 9.8 -9.8 8.5C-12.3 7.3 -13.5 3.7 -12.9 0.7C-12.2 -2.3 -9.6 -4.6 -7.1 -5.9C-4.6 -7.2 -2.3 -7.4 -0.2 -7.3C2 -7.1 4 -6.6 5.5 -5.3Z" stroke="#07434d" fill="none" stroke-width="7"></path></g><g transform="translate(408 3)"><path d="M2.9 -2.5C3.6 -2.2 4 -1.1 3.9 -0.1C3.8 1 3.4 2 2.7 2.7C2 3.5 1 4 0 4C-0.9 3.9 -1.8 3.3 -2.2 2.5C-2.7 1.8 -2.8 0.9 -2.8 0C-2.7 -0.8 -2.6 -1.6 -2.1 -2C-1.6 -2.3 -0.8 -2.1 0.1 -2.3C1.1 -2.4 2.2 -2.9 2.9 -2.5Z" stroke="#07434d" fill="none" stroke-width="7"></path></g><g transform="translate(914 326)"><path d="M9.7 -9.9C12.1 -7.3 13.2 -3.6 13 -0.2C12.8 3.2 11.1 6.4 8.8 9.7C6.4 13 3.2 16.5 0.6 15.9C-2.1 15.4 -4.1 10.8 -7.1 7.4C-10.1 4.1 -14 2.1 -14.1 -0.1C-14.2 -2.3 -10.5 -4.6 -7.6 -7.2C-4.6 -9.9 -2.3 -13 0.7 -13.6C3.6 -14.3 7.3 -12.6 9.7 -9.9Z" stroke="#07434d" fill="none" stroke-width="7"></path></g><g transform="translate(436 157)"><path d="M6.4 -6.9C7.7 -5.2 7.6 -2.6 7.3 -0.4C6.9 1.9 6.3 3.8 5 5.6C3.8 7.5 1.9 9.3 0.3 9C-1.2 8.6 -2.4 6.1 -3.8 4.3C-5.2 2.4 -6.8 1.2 -7 -0.2C-7.3 -1.7 -6.2 -3.4 -4.8 -5.2C-3.4 -6.9 -1.7 -8.8 0.4 -9.2C2.6 -9.6 5.2 -8.7 6.4 -6.9Z" stroke="#07434d" fill="none" stroke-width="7"></path></g><g transform="translate(248 162)"><path d="M13.6 -12.3C16.6 -10.6 17.3 -5.3 16 -1.3C14.6 2.6 11.3 5.3 8.3 7.9C5.3 10.6 2.6 13.3 0.1 13.2C-2.5 13.2 -5 10.4 -8.8 7.7C-12.6 5 -17.7 2.5 -18.4 -0.7C-19.2 -4 -15.6 -8 -11.8 -9.7C-8 -11.4 -4 -10.8 0.6 -11.4C5.3 -12.1 10.6 -14 13.6 -12.3Z" stroke="#07434d" fill="none" stroke-width="7"></path></g><g transform="translate(347 404)"><path d="M4.4 -5.1C5.3 -3.4 5.6 -1.7 5.7 0.2C5.9 2 6 4.1 5 6.1C4.1 8.2 2 10.2 -0.2 10.4C-2.4 10.6 -4.8 8.9 -6.5 6.8C-8.1 4.8 -9.1 2.4 -8.8 0.3C-8.5 -1.8 -6.9 -3.6 -5.3 -5.2C-3.6 -6.9 -1.8 -8.4 0 -8.3C1.7 -8.3 3.4 -6.7 4.4 -5.1Z" stroke="#07434d" fill="none" stroke-width="7"></path></g><g transform="translate(632 332)"><path d="M2.7 -2.6C3.3 -2 3.6 -1 3.8 0.2C4.1 1.5 4.3 3 3.6 3.7C3 4.4 1.5 4.3 0.3 4.1C-1 3.8 -1.9 3.3 -2.9 2.6C-4 1.9 -5.1 1 -5 0C-5 -0.9 -3.8 -1.7 -2.7 -2.2C-1.7 -2.8 -0.9 -3 0.1 -3C1 -3.1 2 -3.1 2.7 -2.6Z" stroke="#07434d" fill="none" stroke-width="7"></path></g><g transform="translate(919 45)"><path d="M3 -3.1C4.2 -1.7 5.8 -0.9 6.1 0.3C6.3 1.4 5.2 2.8 4 3.9C2.8 5.1 1.4 6 0.2 5.8C-1 5.6 -2.1 4.4 -2.6 3.2C-3.1 2.1 -3.1 1 -3.2 -0.1C-3.3 -1.2 -3.5 -2.5 -3 -3.8C-2.5 -5.1 -1.2 -6.5 -0.2 -6.4C0.9 -6.2 1.7 -4.4 3 -3.1Z" stroke="#07434d" fill="none" stroke-width="7"></path></g><g transform="translate(374 212)"><path d="M11.8 -11.5C15.5 -8.1 18.9 -4 19.6 0.8C20.4 5.6 18.6 11.2 14.9 13.9C11.2 16.7 5.6 16.5 0.4 16.2C-4.9 15.8 -9.7 15.2 -12.9 12.5C-16 9.7 -17.4 4.9 -16.5 0.9C-15.6 -3 -12.3 -6 -9.1 -9.4C-6 -12.9 -3 -16.8 0.5 -17.4C4 -17.9 8.1 -15 11.8 -11.5Z" stroke="#07434d" fill="none" stroke-width="7"></path></g><g transform="translate(233 9)"><path d="M6.1 -5.2C7.9 -4.2 9.5 -2.1 9.7 0.2C9.9 2.5 8.7 5 6.9 6.4C5 7.8 2.5 8.2 0.2 7.9C-2 7.7 -4 6.9 -5.8 5.5C-7.5 4 -8.9 2 -9.3 -0.4C-9.7 -2.8 -9 -5.6 -7.3 -6.6C-5.6 -7.5 -2.8 -6.7 -0.3 -6.3C2.1 -6 4.2 -6.2 6.1 -5.2Z" stroke="#07434d" fill="none" stroke-width="7"></path></g><g transform="translate(781 53)"><path d="M7.7 -7.5C10 -5.4 12 -2.7 11.5 -0.4C11.1 1.9 8.4 3.8 6.1 5.8C3.8 7.7 1.9 9.8 0 9.7C-1.8 9.7 -3.6 7.6 -5.7 5.6C-7.7 3.6 -10 1.8 -10.8 -0.8C-11.6 -3.4 -10.9 -6.8 -8.8 -8.8C-6.8 -10.9 -3.4 -11.5 -0.3 -11.2C2.7 -10.9 5.4 -9.5 7.7 -7.5Z" stroke="#07434d" fill="none" stroke-width="7"></path></g><g transform="translate(795 292)"><path d="M1.8 -2C2.2 -1.4 2.4 -0.7 2.2 -0.2C2.1 0.4 1.6 0.8 1.2 1.1C0.8 1.5 0.4 1.7 -0.3 2C-0.9 2.3 -1.9 2.5 -2.5 2.2C-3.2 1.9 -3.6 0.9 -3.5 0.1C-3.4 -0.7 -2.8 -1.5 -2.1 -2.1C-1.5 -2.7 -0.7 -3.2 0 -3.2C0.7 -3.1 1.4 -2.6 1.8 -2Z" stroke="#07434d" fill="none" stroke-width="7"></path></g><g transform="translate(95 57)"><path d="M8.8 -9.4C11.9 -5.8 15.2 -2.9 15.6 0.4C16 3.7 13.6 7.4 10.5 9.5C7.4 11.5 3.7 11.9 -0.7 12.6C-5.1 13.3 -10.2 14.3 -12.7 12.3C-15.1 10.2 -15 5.1 -14.1 0.9C-13.2 -3.4 -11.7 -6.7 -9.2 -10.4C-6.7 -14 -3.4 -18 -0.2 -17.7C2.9 -17.5 5.8 -13.1 8.8 -9.4Z" stroke="#07434d" fill="none" stroke-width="7"></path></g><g transform="translate(1071 65)"><path d="M9.4 -8.9C12 -6.7 14 -3.4 13.6 -0.5C13.1 2.4 10.2 4.9 7.5 8.1C4.9 11.3 2.4 15.3 -1 16.3C-4.5 17.3 -8.9 15.4 -10.5 12.1C-12.1 8.9 -10.9 4.5 -10.4 0.5C-9.9 -3.5 -10.1 -6.9 -8.5 -9.1C-6.9 -11.3 -3.5 -12.2 -0.1 -12.1C3.4 -12.1 6.7 -11.1 9.4 -8.9Z" stroke="#07434d" fill="none" stroke-width="7"></path></g><g transform="translate(118 180)"><path d="M2.2 -1.9C2.8 -1.6 3.3 -0.8 3.2 -0.1C3 0.5 2.3 1.1 1.7 1.4C1.1 1.7 0.5 1.8 0 1.8C-0.5 1.8 -1.1 1.7 -1.4 1.4C-1.7 1.1 -1.7 0.5 -1.8 -0.1C-2 -0.7 -2.1 -1.5 -1.8 -1.8C-1.5 -2.1 -0.7 -2.1 0 -2.1C0.8 -2.1 1.6 -2.2 2.2 -1.9Z" stroke="#07434d" fill="none" stroke-width="7"></path></g><g transform="translate(677 291)"><path d="M10.1 -9.3C12.3 -7.9 12.8 -4 12.7 -0.1C12.5 3.7 11.9 7.4 9.7 8.8C7.4 10.1 3.7 9.1 0.5 8.5C-2.6 8 -5.3 8 -7.9 6.6C-10.6 5.3 -13.3 2.6 -13.4 -0.1C-13.5 -2.9 -11.1 -5.8 -8.5 -7.2C-5.8 -8.5 -2.9 -8.4 0.5 -8.9C4 -9.4 7.9 -10.6 10.1 -9.3Z" stroke="#07434d" fill="none" stroke-width="7"></path></g><g transform="translate(4 366)"><path d="M3.6 -3.5C4.4 -2.8 4.5 -1.4 4.2 -0.3C3.9 0.8 3.2 1.6 2.4 2.4C1.6 3.3 0.8 4.1 -0.2 4.3C-1.3 4.6 -2.6 4.2 -3.2 3.4C-3.8 2.6 -3.8 1.3 -4 -0.2C-4.2 -1.7 -4.7 -3.5 -4.1 -4.2C-3.5 -4.9 -1.7 -4.6 -0.2 -4.4C1.4 -4.2 2.8 -4.2 3.6 -3.5Z" stroke="#07434d" fill="none" stroke-width="7"></path></g><g transform="translate(961 132)"><path d="M10.6 -10.1C14.7 -6.6 19.5 -3.3 19.6 0.1C19.7 3.6 15.2 7.2 11.2 11.4C7.2 15.6 3.6 20.5 -0.9 21.4C-5.4 22.3 -10.9 19.3 -14.5 15.1C-18.1 10.9 -19.9 5.4 -18.9 1C-17.9 -3.4 -14.1 -6.8 -10.4 -10.4C-6.8 -13.9 -3.4 -17.6 -0.1 -17.5C3.3 -17.5 6.6 -13.7 10.6 -10.1Z" stroke="#07434d" fill="none" stroke-width="7"></path></g><g transform="translate(981 232)"><path d="M10.5 -11.1C13.8 -7.2 16.7 -3.6 16.2 -0.6C15.6 2.5 11.5 5 8.2 7.7C5 10.5 2.5 13.6 -0.5 14.2C-3.5 14.7 -7 12.6 -9.2 9.8C-11.3 7 -12.1 3.5 -12.1 0C-12.1 -3.6 -11.4 -7.1 -9.3 -11C-7.1 -14.9 -3.6 -19.2 0 -19.2C3.6 -19.2 7.2 -15 10.5 -11.1Z" stroke="#07434d" fill="none" stroke-width="7"></path></g><g transform="translate(282 253)"><path d="M6.4 -6.9C8.4 -4.4 10.3 -2.2 10.8 0.5C11.3 3.2 10.4 6.4 8.4 8.7C6.4 11 3.2 12.3 0.7 11.6C-1.8 10.9 -3.5 8.1 -5.8 5.8C-8.2 3.5 -11 1.8 -11.4 -0.4C-11.7 -2.5 -9.6 -4.9 -7.2 -7.4C-4.9 -10 -2.5 -12.5 -0.1 -12.4C2.2 -12.3 4.4 -9.4 6.4 -6.9Z" stroke="#07434d" fill="none" stroke-width="7"></path></g><g transform="translate(871 117)"><path d="M2.8 -2.7C3.5 -2.1 3.8 -1 3.6 -0.3C3.3 0.5 2.4 1 1.7 1.5C1 2 0.5 2.5 -0.1 2.6C-0.6 2.6 -1.2 2.2 -1.7 1.7C-2.1 1.2 -2.3 0.6 -2.5 -0.2C-2.7 -1 -2.8 -2 -2.4 -2.6C-2 -3.2 -1 -3.5 0 -3.5C1 -3.5 2.1 -3.3 2.8 -2.7Z" stroke="#07434d" fill="none" stroke-width="7"></path></g><g transform="translate(221 326)"><path d="M11.1 -10.8C14 -8.3 15.5 -4.1 15.2 -0.3C14.9 3.6 12.9 7.2 10 10.8C7.2 14.3 3.6 17.8 -0.3 18C-4.1 18.3 -8.2 15.3 -11.9 11.8C-15.5 8.2 -18.6 4.1 -17.8 0.8C-17 -2.5 -12.3 -5.1 -8.7 -7.5C-5.1 -10 -2.5 -12.4 0.8 -13.2C4.1 -14 8.3 -13.2 11.1 -10.8Z" stroke="#07434d" fill="none" stroke-width="7"></path></g><g transform="translate(867 377)"><path d="M12.6 -11.9C15.7 -9.5 17.1 -4.8 16.5 -0.5C16 3.7 13.5 7.3 10.4 9.9C7.3 12.5 3.7 14 0 14C-3.6 14 -7.3 12.4 -10.7 9.8C-14.2 7.3 -17.4 3.6 -18 -0.5C-18.5 -4.7 -16.3 -9.4 -12.9 -11.8C-9.4 -14.2 -4.7 -14.2 0 -14.2C4.8 -14.2 9.5 -14.3 12.6 -11.9Z" stroke="#07434d" fill="none" stroke-width="7"></path></g><g transform="translate(1037 207)"><path d="M2.2 -2.1C2.7 -1.7 2.9 -0.8 2.8 -0.1C2.8 0.7 2.5 1.4 1.9 2C1.4 2.6 0.7 3 0.1 2.9C-0.5 2.8 -0.9 2.1 -1.3 1.5C-1.6 0.9 -1.7 0.5 -1.8 -0.1C-1.9 -0.7 -2 -1.4 -1.7 -1.8C-1.4 -2.2 -0.7 -2.4 0.1 -2.4C0.8 -2.5 1.7 -2.5 2.2 -2.1Z" stroke="#07434d" fill="none" stroke-width="7"></path></g><g transform="translate(106 385)"><path d="M9.1 -10.1C11.8 -6.3 14.1 -3.2 14.6 0.5C15.2 4.2 13.9 8.4 11.1 11.1C8.4 13.9 4.2 15.2 0 15.2C-4.3 15.2 -8.6 14 -12 11.3C-15.5 8.6 -18.2 4.3 -18.5 -0.3C-18.9 -4.9 -16.8 -9.8 -13.3 -13.6C-9.8 -17.4 -4.9 -20 -0.9 -19.1C3.2 -18.2 6.3 -13.8 9.1 -10.1Z" stroke="#07434d" fill="none" stroke-width="7"></path></g><g transform="translate(771 413)"><path d="M5 -4.2C6.6 -3.5 8 -1.7 8.2 0.1C8.3 2 7.1 4 5.5 4.6C4 5.3 2 4.6 0.3 4.2C-1.3 3.9 -2.6 3.9 -4.1 3.3C-5.5 2.6 -7.1 1.3 -7.1 0C-7.2 -1.4 -5.6 -2.8 -4.2 -3.5C-2.8 -4.2 -1.4 -4.2 0.2 -4.4C1.7 -4.6 3.5 -4.9 5 -4.2Z" stroke="#07434d" fill="none" stroke-width="7"></path></g><g transform="translate(276 85)"><path d="M2.7 -2.8C3.2 -2.1 3.4 -1 3.5 0.1C3.7 1.3 3.8 2.7 3.3 3.6C2.7 4.6 1.3 5.2 0.1 5.1C-1.1 5 -2.2 4.1 -2.6 3.1C-3.1 2.2 -2.9 1.1 -2.7 0.1C-2.6 -0.9 -2.6 -1.7 -2.2 -2.5C-1.7 -3.2 -0.9 -3.8 0.1 -3.9C1 -4 2.1 -3.5 2.7 -2.8Z" stroke="#07434d" fill="none" stroke-width="7"></path></g><g transform="translate(445 91)"><path d="M5 -4.5C6.7 -3.3 8.3 -1.7 8.6 0.3C8.8 2.2 7.7 4.4 6 5.2C4.4 6.1 2.2 5.6 -0.3 5.8C-2.7 6.1 -5.5 7.2 -7 6.3C-8.6 5.5 -9 2.7 -8.9 0C-8.9 -2.7 -8.5 -5.4 -6.9 -6.6C-5.4 -7.8 -2.7 -7.5 -0.5 -7C1.7 -6.5 3.3 -5.7 5 -4.5Z" stroke="#07434d" fill="none" stroke-width="7"></path></g><g transform="translate(857 293)"><path d="M3.5 -3C4.8 -2.3 6.2 -1.1 6 -0.2C5.8 0.7 4 1.5 2.7 2.3C1.5 3.2 0.7 4.1 0 4.1C-0.8 4.1 -1.5 3.2 -2.2 2.4C-3 1.5 -3.6 0.8 -3.6 0C-3.6 -0.7 -2.9 -1.5 -2.2 -2.2C-1.5 -2.9 -0.7 -3.6 0.2 -3.8C1.1 -4 2.3 -3.7 3.5 -3Z" stroke="#07434d" fill="none" stroke-width="7"></path></g><g transform="translate(683 448)"><path d="M1.6 -1.4C2 -1.2 2.3 -0.6 2.2 -0.1C2.1 0.4 1.6 0.7 1.1 1.1C0.7 1.6 0.4 2.1 -0.2 2.3C-0.7 2.5 -1.4 2.3 -1.6 1.8C-1.9 1.4 -1.6 0.7 -1.4 0.2C-1.2 -0.3 -1 -0.6 -0.8 -0.8C-0.6 -1 -0.3 -1.3 0.1 -1.4C0.6 -1.6 1.2 -1.6 1.6 -1.4Z" stroke="#07434d" fill="none" stroke-width="7"></path></g><g transform="translate(542 219)"><path d="M2.6 -2.5C3.3 -2 3.7 -1 3.5 -0.1C3.4 0.8 2.8 1.5 2.2 1.9C1.5 2.4 0.8 2.4 -0.2 2.6C-1.1 2.8 -2.2 3.1 -2.8 2.7C-3.3 2.2 -3.3 1.1 -3.3 -0.1C-3.4 -1.2 -3.5 -2.5 -3 -3C-2.5 -3.5 -1.2 -3.4 -0.1 -3.2C1 -3.1 2 -3 2.6 -2.5Z" stroke="#07434d" fill="none" stroke-width="7"></path></g><g transform="translate(158 97)"><path d="M14.5 -14.2C16.7 -12.4 14.8 -6.2 13.1 -1.7C11.3 2.7 9.8 5.5 7.6 8C5.5 10.4 2.7 12.6 -0.1 12.7C-2.9 12.8 -5.8 10.7 -9.7 8.3C-13.7 5.8 -18.6 2.9 -18.7 -0.1C-18.8 -3 -13.9 -6.1 -10 -7.9C-6.1 -9.8 -3 -10.5 1.6 -12C6.2 -13.6 12.4 -16.1 14.5 -14.2Z" stroke="#07434d" fill="none" stroke-width="7"></path></g><g transform="translate(9 35)"><path d="M14.2 -13.5C18.3 -10 21.6 -5 20.6 -1C19.6 2.9 14.2 5.9 10 9.6C5.9 13.2 2.9 17.7 0.3 17.3C-2.3 17 -4.5 11.9 -8.4 8.2C-12.3 4.5 -17.7 2.3 -18.4 -0.7C-19 -3.6 -14.9 -7.2 -11 -10.6C-7.2 -14 -3.6 -17.3 0.7 -18.1C5 -18.8 10 -16.9 14.2 -13.5Z" stroke="#07434d" fill="none" stroke-width="7"></path></g><g transform="translate(462 220)"><path d="M2 -1.8C2.7 -1.3 3.4 -0.6 3.5 0.1C3.6 0.9 3.1 1.8 2.5 2.2C1.8 2.7 0.9 2.7 -0.1 2.8C-1.1 2.9 -2.1 3 -2.7 2.6C-3.3 2.1 -3.4 1.1 -3.2 0.2C-3 -0.7 -2.5 -1.4 -2 -1.9C-1.4 -2.4 -0.7 -2.7 0 -2.6C0.6 -2.6 1.3 -2.3 2 -1.8Z" stroke="#07434d" fill="none" stroke-width="7"></path></g><g transform="translate(593 400)"><path d="M10 -11.3C12.5 -7.5 13.9 -3.7 14.3 0.5C14.8 4.6 14.4 9.3 11.8 11.6C9.3 13.9 4.6 13.8 0.7 13.2C-3.3 12.5 -6.7 11.3 -8.6 9C-10.6 6.7 -11.1 3.3 -10.5 0.6C-9.9 -2.1 -8.2 -4.3 -6.2 -8.1C-4.3 -11.9 -2.1 -17.3 0.8 -18.1C3.7 -18.9 7.5 -15 10 -11.3Z" stroke="#07434d" fill="none" stroke-width="7"></path></g><g transform="translate(702 35)"><path d="M2.7 -2.7C3.1 -2.3 2.8 -1.1 2.7 -0.1C2.6 1 2.8 2 2.4 2.7C2 3.5 1 4 0.2 3.8C-0.6 3.6 -1.3 2.8 -1.9 2C-2.6 1.3 -3.3 0.6 -3.3 0C-3.3 -0.6 -2.6 -1.2 -1.9 -1.7C-1.2 -2.1 -0.6 -2.3 0.3 -2.6C1.1 -2.9 2.3 -3.2 2.7 -2.7Z" stroke="#07434d" fill="none" stroke-width="7"></path></g><g transform="translate(20 205)"><path d="M2.9 -3.4C3.4 -2.3 3.3 -1.2 3.2 -0.1C3.1 0.9 3 1.9 2.4 2.8C1.9 3.6 0.9 4.4 -0.1 4.5C-1.2 4.7 -2.5 4.2 -3 3.3C-3.6 2.5 -3.4 1.2 -3.5 -0.1C-3.6 -1.4 -3.8 -2.7 -3.3 -3.8C-2.7 -4.8 -1.4 -5.6 -0.1 -5.5C1.2 -5.4 2.3 -4.5 2.9 -3.4Z" stroke="#07434d" fill="none" stroke-width="7"></path></g><g transform="translate(918 434)"><path d="M8.9 -9.3C11.5 -6.2 13.8 -3.1 14.5 0.8C15.3 4.6 14.6 9.2 11.9 13.5C9.2 17.8 4.6 21.7 1 20.7C-2.6 19.7 -5.2 13.7 -8 9.5C-10.8 5.2 -13.9 2.6 -15 -1.1C-16.1 -4.8 -15.3 -9.7 -12.5 -12.7C-9.7 -15.8 -4.8 -17.1 -0.9 -16.3C3.1 -15.4 6.2 -12.4 8.9 -9.3Z" stroke="#07434d" fill="none" stroke-width="7"></path></g><g transform="translate(460 447)"><path d="M5.8 -5.4C7.3 -4.2 8.3 -2.1 8 -0.3C7.7 1.5 6.1 3 4.5 4.8C3 6.7 1.5 9 0.2 8.8C-1.2 8.7 -2.3 6.1 -3.5 4.2C-4.6 2.3 -5.7 1.2 -5.9 -0.2C-6.1 -1.6 -5.5 -3.3 -4.4 -4.4C-3.3 -5.6 -1.6 -6.3 0.2 -6.5C2.1 -6.8 4.2 -6.6 5.8 -5.4Z" stroke="#07434d" fill="none" stroke-width="7"></path></g><g transform="translate(1061 300)"><path d="M5.2 -4.3C7.2 -3.1 9.7 -1.6 10.6 0.8C11.4 3.3 10.6 6.5 8.6 7.9C6.5 9.2 3.3 8.7 0.2 8.5C-3 8.4 -5.9 8.6 -7.1 7.3C-8.3 5.9 -7.7 3 -7.5 0.1C-7.4 -2.7 -7.8 -5.4 -6.6 -6.6C-5.4 -7.7 -2.7 -7.4 -0.6 -6.8C1.6 -6.2 3.1 -5.5 5.2 -4.3Z" stroke="#07434d" fill="none" stroke-width="7"></path></g><g transform="translate(236 448)"><path d="M4.4 -4.1C5.7 -3.2 6.5 -1.6 6.6 0C6.6 1.7 5.9 3.4 4.6 4C3.4 4.6 1.7 4.2 0.1 4.1C-1.6 4 -3.2 4.4 -4.1 3.8C-5 3.2 -5.2 1.6 -5.2 0C-5.2 -1.5 -4.9 -3.1 -4 -4C-3.1 -5 -1.5 -5.3 0 -5.3C1.6 -5.4 3.2 -5.1 4.4 -4.1Z" stroke="#07434d" fill="none" stroke-width="7"></path></g><g transform="translate(542 320)"><path d="M3.5 -3.9C4.2 -2.8 4.2 -1.4 4.3 0.1C4.3 1.5 4.5 3.1 3.8 3.8C3.1 4.6 1.5 4.5 0 4.5C-1.5 4.5 -3.1 4.6 -3.9 3.8C-4.6 3.1 -4.6 1.5 -4.3 0.3C-4 -0.9 -3.4 -1.8 -2.6 -2.9C-1.8 -3.9 -0.9 -5.1 0.2 -5.4C1.4 -5.6 2.8 -4.9 3.5 -3.9Z" stroke="#07434d" fill="none" stroke-width="7"></path></g><g transform="translate(628 102)"><path d="M3.7 -3.7C5 -2.5 6.3 -1.2 6.2 -0.1C6.2 1.1 4.8 2.2 3.5 3.6C2.2 4.9 1.1 6.4 -0.1 6.5C-1.3 6.7 -2.7 5.3 -4.3 4C-5.9 2.7 -7.7 1.3 -7.7 0C-7.7 -1.3 -5.9 -2.7 -4.3 -3.9C-2.7 -5.2 -1.3 -6.3 0 -6.3C1.2 -6.2 2.5 -5 3.7 -3.7Z" stroke="#07434d" fill="none" stroke-width="7"></path></g><g transform="translate(162 413)"><path d="M3.6 -3.4C4.5 -2.7 4.9 -1.4 5.2 0.4C5.6 2.1 5.9 4.1 5 5.2C4.1 6.3 2.1 6.4 0.3 6.1C-1.5 5.8 -3 5.1 -4.4 4C-5.8 3 -7.2 1.5 -7.2 0.1C-7.1 -1.4 -5.6 -2.7 -4.2 -3.4C-2.7 -4.1 -1.4 -4.2 0 -4.1C1.4 -4.1 2.7 -4.1 3.6 -3.4Z" stroke="#07434d" fill="none" stroke-width="7"></path></g><g transform="translate(478 12)"><path d="M4.5 -4.8C6.1 -2.8 8 -1.4 8 0C8 1.4 6.1 2.8 4.5 4.1C2.8 5.4 1.4 6.5 -0.5 7C-2.4 7.5 -4.9 7.4 -6.9 6.1C-8.9 4.9 -10.4 2.4 -10.2 0.2C-10 -2 -8.1 -4.1 -6.1 -6.1C-4.1 -8.1 -2 -10.1 -0.3 -9.7C1.4 -9.4 2.8 -6.8 4.5 -4.8Z" stroke="#07434d" fill="none" stroke-width="7"></path></g><g transform="translate(1074 152)"><path d="M7.6 -9.2C10.2 -5.1 12.8 -2.5 13.3 0.4C13.7 3.4 11.9 6.8 9.4 9.8C6.8 12.8 3.4 15.5 0.1 15.4C-3.3 15.3 -6.5 12.5 -10.4 9.5C-14.3 6.5 -18.7 3.3 -19.6 -0.9C-20.5 -5 -17.8 -10.1 -14 -14.2C-10.1 -18.3 -5 -21.4 -1.3 -20.1C2.5 -18.9 5.1 -13.2 7.6 -9.2Z" stroke="#07434d" fill="none" stroke-width="7"></path></g><g transform="translate(830 4)"><path d="M8.9 -8.8C12.1 -5.8 15.5 -2.9 15.2 -0.3C14.9 2.3 10.8 4.5 7.7 7.1C4.5 9.7 2.3 12.7 -0.9 13.5C-4 14.4 -8.1 13.3 -10.5 10.7C-12.9 8.1 -13.6 4 -13.5 0.1C-13.4 -3.8 -12.4 -7.6 -10 -10.6C-7.6 -13.7 -3.8 -15.9 -0.5 -15.5C2.9 -15 5.8 -11.8 8.9 -8.8Z" stroke="#07434d" fill="none" stroke-width="7"></path></g><g transform="translate(674 221)"><path d="M5 -5.4C6 -4 6 -2 6.2 0.2C6.3 2.3 6.6 4.6 5.6 6.2C4.6 7.8 2.3 8.6 0.2 8.4C-2 8.2 -3.9 7 -4.9 5.5C-5.9 3.9 -5.9 2 -5.7 0.2C-5.6 -1.7 -5.3 -3.3 -4.3 -4.7C-3.3 -6.1 -1.7 -7.3 0.2 -7.4C2 -7.6 4 -6.8 5 -5.4Z" stroke="#07434d" fill="none" stroke-width="7"></path></g><g transform="translate(720 334)"><path d="M11 -12.5C12.8 -9.3 11.6 -4.6 11.7 0.1C11.8 4.9 13.2 9.7 11.5 11.3C9.7 12.8 4.9 11 0 11.1C-4.9 11.1 -9.7 12.8 -12.9 11.3C-16.1 9.7 -17.6 4.9 -17.1 0.5C-16.6 -3.9 -14.1 -7.7 -10.9 -11C-7.7 -14.2 -3.9 -16.9 0.4 -17.2C4.6 -17.6 9.3 -15.8 11 -12.5Z" stroke="#07434d" fill="none" stroke-width="7"></path></g><g transform="translate(577 22)"><path d="M10.1 -10.2C12.1 -8.2 11.8 -4.1 11.5 -0.4C11.1 3.3 10.5 6.7 8.6 9.7C6.7 12.6 3.3 15.2 -1 16.3C-5.4 17.3 -10.8 16.7 -14.9 13.8C-18.9 10.8 -21.7 5.4 -20.4 1.3C-19.1 -2.8 -13.8 -5.7 -9.7 -7.6C-5.7 -9.6 -2.8 -10.6 0.6 -11.3C4.1 -11.9 8.2 -12.1 10.1 -10.2Z" stroke="#07434d" fill="none" stroke-width="7"></path></g><g transform="translate(377 72)"><path d="M9.5 -10.7C12.5 -6.6 15.2 -3.3 16.3 1.1C17.4 5.4 16.8 10.9 13.9 13.1C10.9 15.4 5.4 14.5 -0.2 14.7C-5.9 14.9 -11.7 16.3 -14.8 14C-17.9 11.7 -18.2 5.9 -16.5 1.7C-14.8 -2.5 -11.1 -5 -8 -9.1C-5 -13.3 -2.5 -19.1 0.4 -19.5C3.3 -19.9 6.6 -14.9 9.5 -10.7Z" stroke="#07434d" fill="none" stroke-width="7"></path></g><g transform="translate(157 25)"><path d="M3 -3.3C3.9 -2.2 4.5 -1.1 4.6 0.1C4.7 1.3 4.3 2.6 3.4 3.2C2.6 3.8 1.3 3.6 -0.1 3.8C-1.5 3.9 -3.1 4.2 -4.1 3.7C-5.1 3.1 -5.7 1.5 -5.4 0.2C-5.2 -1.1 -4.2 -2.1 -3.1 -3.2C-2.1 -4.3 -1.1 -5.5 0 -5.5C1.1 -5.5 2.2 -4.4 3 -3.3Z" stroke="#07434d" fill="none" stroke-width="7"></path></g><g transform="translate(463 293)"><path d="M2.4 -2C3.3 -1.5 4.3 -0.8 4.3 0C4.3 0.7 3.2 1.4 2.3 2.3C1.4 3.2 0.7 4.3 -0.2 4.5C-1.1 4.7 -2.2 4 -2.8 3.1C-3.5 2.2 -3.7 1.1 -3.7 0C-3.7 -1.1 -3.6 -2.3 -2.9 -2.7C-2.3 -3.2 -1.1 -3.1 -0.2 -2.9C0.8 -2.7 1.5 -2.5 2.4 -2Z" stroke="#07434d" fill="none" stroke-width="7"></path></g><g transform="translate(762 217)"><path d="M8.3 -6.9C11.8 -4.8 16.3 -2.4 17.6 1.3C18.9 5 16.9 9.9 13.4 12.6C9.9 15.3 5 15.7 1 14.7C-3 13.7 -5.9 11.3 -8.1 8.6C-10.2 5.9 -11.6 3 -11.5 0.1C-11.4 -2.7 -9.7 -5.4 -7.5 -7.5C-5.4 -9.6 -2.7 -11.1 -0.1 -10.9C2.4 -10.8 4.8 -9 8.3 -6.9Z" stroke="#07434d" fill="none" stroke-width="7"></path></g><g transform="translate(969 294)"><path d="M12.3 -11.2C15.2 -9.3 16.4 -4.7 15.1 -1.3C13.7 2 9.8 4 6.9 6.8C4 9.6 2 13.3 -1.4 14.7C-4.7 16.1 -9.4 15.1 -11.9 12.3C-14.5 9.4 -14.8 4.7 -14.1 0.7C-13.4 -3.3 -11.7 -6.6 -9.1 -8.4C-6.6 -10.2 -3.3 -10.5 0.7 -11.2C4.7 -11.9 9.3 -13 12.3 -11.2Z" stroke="#07434d" fill="none" stroke-width="7"></path></g><g transform="translate(595 167)"><path d="M11 -10C14 -8 16 -4 15.9 -0.1C15.8 3.8 13.7 7.7 10.7 10.5C7.7 13.3 3.8 15 0.6 14.4C-2.6 13.8 -5.1 10.7 -7.1 7.9C-9 5.1 -10.3 2.6 -11.4 -1.1C-12.5 -4.8 -13.5 -9.6 -11.5 -11.6C-9.6 -13.6 -4.8 -12.8 -0.4 -12.4C4 -12 8 -12 11 -10Z" stroke="#07434d" fill="none" stroke-width="7"></path></g><g transform="translate(113 251)"><path d="M8.6 -9.7C9.9 -7.2 9 -3.6 8.1 -0.9C7.2 1.8 6.3 3.6 5 5.8C3.6 7.9 1.8 10.4 -0.7 11.1C-3.2 11.8 -6.3 10.6 -8 8.5C-9.7 6.3 -10 3.2 -9.5 0.5C-9 -2.2 -7.8 -4.4 -6.1 -6.8C-4.4 -9.2 -2.2 -11.8 0.7 -12.6C3.6 -13.3 7.2 -12.1 8.6 -9.7Z" stroke="#07434d" fill="none" stroke-width="7"></path></g><g transform="translate(159 327)"><path d="M13.2 -15.2C15.3 -11.1 13.9 -5.5 13.7 -0.2C13.4 5 14.3 10.1 12.2 13.7C10.1 17.4 5 19.6 -0.5 20.1C-6 20.6 -12 19.3 -14.7 15.6C-17.3 12 -16.7 6 -15.2 1.4C-13.8 -3.2 -11.6 -6.3 -9 -10.5C-6.3 -14.6 -3.2 -19.8 1.2 -21C5.5 -22.1 11.1 -19.4 13.2 -15.2Z" stroke="#07434d" fill="none" stroke-width="7"></path></g><g transform="translate(317 40)"><path d="M5.3 -5C6.5 -4.1 6.9 -2.1 6.7 -0.1C6.6 1.8 6 3.6 4.8 4.2C3.6 4.9 1.8 4.5 -0.1 4.5C-1.9 4.6 -3.9 5.2 -4.6 4.6C-5.4 3.9 -4.9 1.9 -5 0C-5 -2 -5.5 -4 -4.7 -4.8C-4 -5.7 -2 -5.4 0 -5.4C2.1 -5.4 4.1 -5.8 5.3 -5Z" stroke="#07434d" fill="none" stroke-width="7"></path></g><g transform="translate(984 72)"><path d="M5.1 -5.2C7 -3.3 9 -1.7 9.6 0.6C10.2 2.9 9.5 5.8 7.7 7.9C5.8 10 2.9 11.2 0.7 10.4C-1.5 9.7 -2.9 7.1 -5.4 5C-7.9 2.9 -11.3 1.5 -12.2 -0.9C-13.2 -3.3 -11.6 -6.6 -9.1 -8.5C-6.6 -10.4 -3.3 -10.9 -0.8 -10.1C1.7 -9.2 3.3 -7.1 5.1 -5.2Z" stroke="#07434d" fill="none" stroke-width="7"></path></g><g transform="translate(721 93)"><path d="M4.3 -4.2C6.3 -2.4 9 -1.2 9.1 0.1C9.2 1.4 6.7 2.8 4.8 3.7C2.8 4.5 1.4 4.8 -0.5 5.3C-2.3 5.7 -4.7 6.4 -5.9 5.5C-7.1 4.7 -7.2 2.3 -6.8 0.4C-6.5 -1.6 -5.6 -3.2 -4.4 -5C-3.2 -6.9 -1.6 -9 -0.2 -8.7C1.2 -8.5 2.4 -6 4.3 -4.2Z" stroke="#07434d" fill="none" stroke-width="7"></path></g><g transform="translate(342 269)"><path d="M4.7 -4.8C6 -3.5 6.8 -1.7 6.6 -0.2C6.4 1.4 5.2 2.7 4 3.8C2.7 4.9 1.4 5.7 0 5.7C-1.3 5.7 -2.7 4.9 -3.7 3.8C-4.7 2.7 -5.4 1.3 -5.2 0.2C-5 -0.9 -3.9 -1.8 -2.9 -3.1C-1.8 -4.4 -0.9 -6.1 0.4 -6.5C1.7 -6.9 3.5 -6.1 4.7 -4.8Z" stroke="#07434d" fill="none" stroke-width="7"></path></g><g transform="translate(1034 357)"><path d="M5.7 -6.8C7.6 -3.8 9.5 -1.9 10.7 1.2C11.8 4.2 12.2 8.4 10.3 9.6C8.4 10.7 4.2 8.9 0.8 8.1C-2.5 7.3 -5.1 7.4 -7.8 6.2C-10.5 5.1 -13.4 2.5 -13.5 -0.1C-13.7 -2.8 -11 -5.6 -8.3 -8.6C-5.6 -11.6 -2.8 -14.7 -0.5 -14.3C1.9 -13.8 3.8 -9.7 5.7 -6.8Z" stroke="#07434d" fill="none" stroke-width="7"></path></g><g transform="translate(818 153)"><path d="M1.5 -1.4C2.1 -0.8 2.9 -0.4 2.9 0C2.9 0.4 2.1 0.9 1.5 1.3C0.9 1.8 0.4 2.2 -0.1 2.3C-0.6 2.4 -1.3 2.2 -1.9 1.7C-2.5 1.3 -3 0.6 -2.9 0.1C-2.9 -0.5 -2.2 -1 -1.6 -1.6C-1 -2.1 -0.5 -2.8 0 -2.8C0.4 -2.8 0.8 -2 1.5 -1.4Z" stroke="#07434d" fill="none" stroke-width="7"></path></g><g transform="translate(510 375)"><path d="M2.6 -2.4C3.5 -1.6 4.6 -0.8 4.8 0.2C4.9 1.1 4.1 2.2 3.2 3.1C2.2 4 1.1 4.6 0.1 4.5C-1 4.5 -2 3.7 -3 2.9C-3.9 2 -4.8 1 -5.1 -0.3C-5.4 -1.6 -5.2 -3.3 -4.2 -4C-3.3 -4.8 -1.6 -4.6 -0.4 -4.2C0.8 -3.8 1.6 -3.1 2.6 -2.4Z" stroke="#07434d" fill="none" stroke-width="7"></path></g><g transform="translate(972 380)"><path d="M8.5 -7.8C10.7 -6.3 12.1 -3.1 11.6 -0.5C11 2.1 8.6 4.1 6.4 6.1C4.1 8.1 2.1 10 0 10C-2.1 10 -4.2 8.1 -6.2 6.1C-8.2 4.2 -10.1 2.1 -10.5 -0.4C-10.9 -2.9 -9.7 -5.7 -7.7 -7.3C-5.7 -8.8 -2.9 -9 0.1 -9.1C3.1 -9.2 6.3 -9.3 8.5 -7.8Z" stroke="#07434d" fill="none" stroke-width="7"></path></g><g transform="translate(496 168)"><path d="M7.8 -7.9C9 -6.6 8.1 -3.3 7.5 -0.6C6.8 2.1 6.5 4.1 5.3 5C4.1 5.9 2.1 5.6 -0.1 5.7C-2.3 5.8 -4.5 6.3 -6.4 5.4C-8.4 4.5 -9.9 2.3 -10.4 -0.5C-10.8 -3.2 -10.2 -6.3 -8.3 -7.6C-6.3 -8.9 -3.2 -8.4 0.1 -8.4C3.3 -8.5 6.6 -9.2 7.8 -7.9Z" stroke="#07434d" fill="none" stroke-width="7"></path></g><g transform="translate(313 200)"><path d="M6.8 -6.7C8.3 -5.2 8.7 -2.6 8.5 -0.2C8.3 2.3 7.5 4.5 6 5.9C4.5 7.3 2.3 7.8 0.2 7.6C-1.8 7.4 -3.7 6.4 -5.3 5C-7 3.7 -8.5 1.8 -8.6 -0.1C-8.7 -2 -7.3 -3.9 -5.6 -5.4C-3.9 -6.9 -2 -7.9 0.3 -8.2C2.6 -8.6 5.2 -8.2 6.8 -6.7Z" stroke="#07434d" fill="none" stroke-width="7"></path></g><g transform="translate(929 189)"><path d="M3.6 -3.1C4.9 -2.4 6.2 -1.2 6.2 0C6.2 1.2 5 2.5 3.7 3.8C2.5 5.1 1.2 6.6 0.1 6.5C-1 6.4 -2.1 4.7 -3.4 3.4C-4.8 2.1 -6.5 1 -6.8 -0.4C-7.2 -1.8 -6.3 -3.6 -4.9 -4.3C-3.6 -5.1 -1.8 -4.7 -0.3 -4.4C1.2 -4.1 2.4 -3.8 3.6 -3.1Z" stroke="#07434d" fill="none" stroke-width="7"></path></g><g transform="translate(636 8)"><path d="M10 -9.3C12.8 -7.2 14.9 -3.6 15.1 0.2C15.3 4 13.6 7.9 10.8 9.9C7.9 11.8 4 11.7 0.9 10.8C-2.2 9.9 -4.4 8.2 -6.2 6.3C-8.1 4.4 -9.7 2.2 -11.1 -1.4C-12.5 -5 -13.8 -10 -11.9 -12.2C-10 -14.3 -5 -13.6 -0.7 -12.9C3.6 -12.2 7.2 -11.5 10 -9.3Z" stroke="#07434d" fill="none" stroke-width="7"></path></g><g transform="translate(307 324)"><path d="M9.2 -9.9C11.5 -7 12.6 -3.5 13.4 0.9C14.3 5.2 15 10.5 12.8 14.5C10.5 18.5 5.2 21.2 1.4 19.8C-2.5 18.4 -5 13 -7 9C-9 5 -10.3 2.5 -10.6 -0.3C-10.9 -3.1 -10.1 -6.2 -8.1 -9.1C-6.2 -12 -3.1 -14.8 0.2 -15C3.5 -15.2 7 -12.8 9.2 -9.9Z" stroke="#07434d" fill="none" stroke-width="7"></path></g><g transform="translate(676 378)"><path d="M5.7 -6.2C6.9 -4.4 7.3 -2.2 7.2 -0.1C7.1 2 6.6 4.1 5.3 4.8C4.1 5.5 2 4.9 -0.2 5.1C-2.5 5.3 -4.9 6.4 -6.2 5.7C-7.4 4.9 -7.3 2.5 -6.9 0.4C-6.5 -1.6 -5.7 -3.3 -4.5 -5.1C-3.3 -6.9 -1.6 -8.8 0.3 -9.1C2.2 -9.4 4.4 -8 5.7 -6.2Z" stroke="#07434d" fill="none" stroke-width="7"></path></g><g transform="translate(211 66)"><path d="M11.2 -11C14.2 -8.1 16.3 -4.1 15.5 -0.8C14.7 2.5 11.1 5 8.1 6.8C5 8.6 2.5 9.7 -1.5 11.1C-5.5 12.6 -10.9 14.5 -14.7 12.7C-18.5 10.9 -20.7 5.5 -20.2 0.4C-19.8 -4.6 -16.7 -9.1 -12.9 -12C-9.1 -14.8 -4.6 -16 -0.2 -15.7C4.1 -15.5 8.1 -13.9 11.2 -11Z" stroke="#07434d" fill="none" stroke-width="7"></path></g><g transform="translate(1066 2)"><path d="M13.7 -16.2C15.7 -11.8 13.7 -5.9 13.7 0C13.8 6 15.8 11.9 13.9 15.7C11.9 19.4 6 20.9 0.6 20.3C-4.9 19.8 -9.7 17.2 -12.1 13.5C-14.4 9.7 -14.3 4.9 -14.7 -0.4C-15 -5.6 -15.9 -11.2 -13.6 -15.6C-11.2 -20.1 -5.6 -23.3 0.1 -23.5C5.9 -23.6 11.8 -20.6 13.7 -16.2Z" stroke="#07434d" fill="none" stroke-width="7"></path></g><g transform="translate(1004 11)"><path d="M8.8 -8C11.8 -5.7 15.2 -2.8 16.2 1C17.1 4.8 15.7 9.6 12.6 11.1C9.6 12.7 4.8 11.1 0.3 10.8C-4.2 10.5 -8.4 11.6 -10.8 10C-13.1 8.4 -13.7 4.2 -13.6 0.1C-13.5 -4 -12.8 -8.1 -10.5 -10.4C-8.1 -12.8 -4 -13.5 -0.6 -12.9C2.8 -12.3 5.7 -10.4 8.8 -8Z" stroke="#07434d" fill="none" stroke-width="7"></path></g><g transform="translate(187 163)"><path d="M4.8 -4.9C5.8 -3.7 6.2 -1.8 5.9 -0.3C5.6 1.2 4.6 2.5 3.6 3.7C2.5 4.9 1.2 6 0.1 5.9C-1.1 5.9 -2.1 4.5 -3.2 3.3C-4.4 2.1 -5.5 1.1 -5.8 -0.2C-6 -1.5 -5.3 -3.1 -4.2 -4.3C-3.1 -5.5 -1.5 -6.5 0.1 -6.6C1.8 -6.7 3.7 -6.1 4.8 -4.9Z" stroke="#07434d" fill="none" stroke-width="7"></path></g><g transform="translate(104 446)"><path d="M11.5 -13C13.4 -9.6 12.3 -4.8 12.8 0.5C13.3 5.8 15.4 11.6 13.5 14.6C11.6 17.6 5.8 17.8 0.3 17.4C-5.2 17.1 -10.3 16.3 -12.7 13.3C-15.1 10.3 -14.7 5.2 -14.3 0.4C-13.9 -4.3 -13.4 -8.6 -11 -11.9C-8.6 -15.3 -4.3 -17.7 0.3 -18C4.8 -18.2 9.6 -16.3 11.5 -13Z" stroke="#07434d" fill="none" stroke-width="7"></path></g><g transform="translate(63 5)"><path d="M1.4 -1.2C2 -0.9 2.6 -0.5 2.7 0C2.7 0.5 2.2 1.1 1.6 1.6C1.1 2.2 0.5 2.8 0 2.8C-0.6 2.8 -1.1 2.2 -1.7 1.7C-2.3 1.1 -3 0.6 -3 0C-3.1 -0.6 -2.5 -1.2 -1.8 -1.5C-1.2 -1.8 -0.6 -1.7 -0.1 -1.6C0.5 -1.6 0.9 -1.5 1.4 -1.2Z" stroke="#07434d" fill="none" stroke-width="7"></path></g><g transform="translate(914 259)"><path d="M2.9 -2.6C3.6 -2.2 3.9 -1.1 3.8 -0.1C3.6 0.8 3 1.6 2.3 2.1C1.6 2.5 0.8 2.6 -0.1 2.8C-1.1 2.9 -2.1 3 -2.5 2.6C-3 2.1 -2.7 1.1 -2.5 0.2C-2.3 -0.6 -2 -1.2 -1.6 -1.6C-1.2 -2.1 -0.6 -2.4 0.2 -2.7C1.1 -2.9 2.2 -3.1 2.9 -2.6Z" stroke="#07434d" fill="none" stroke-width="7"></path></g><g transform="translate(780 351)"><path d="M1.1 -1.1C1.3 -0.9 1.4 -0.4 1.3 0C1.3 0.4 1.2 0.7 0.9 0.9C0.7 1.2 0.4 1.3 0 1.3C-0.4 1.3 -0.8 1.3 -1.3 1.1C-1.7 0.8 -2.2 0.4 -2.1 0C-2.1 -0.3 -1.6 -0.7 -1.1 -0.9C-0.7 -1.2 -0.3 -1.4 0.1 -1.4C0.4 -1.5 0.9 -1.4 1.1 -1.1Z" stroke="#07434d" fill="none" stroke-width="7"></path></g><g transform="translate(735 272)"><path d="M10.1 -9.3C13.3 -6.8 16.4 -3.4 16.7 0.2C16.9 3.9 14.3 7.8 11 11C7.8 14.1 3.9 16.6 0.8 15.8C-2.3 15 -4.6 10.9 -7 7.8C-9.4 4.6 -12 2.3 -13.1 -1.1C-14.2 -4.5 -13.8 -9 -11.4 -11.5C-9 -13.9 -4.5 -14.4 -0.5 -13.8C3.4 -13.3 6.8 -11.8 10.1 -9.3Z" stroke="#07434d" fill="none" stroke-width="7"></path></g><g transform="translate(397 447)"><path d="M7.5 -7.4C9.5 -5.5 10.8 -2.8 10.7 -0.1C10.6 2.6 9.2 5.2 7.2 6.4C5.2 7.5 2.6 7.2 0.2 7C-2.1 6.8 -4.3 6.6 -6.2 5.4C-8 4.3 -9.7 2.1 -9.5 0.1C-9.4 -1.9 -7.5 -3.7 -5.6 -5.6C-3.7 -7.4 -1.9 -9.2 0.5 -9.7C2.8 -10.1 5.5 -9.2 7.5 -7.4Z" stroke="#07434d" fill="none" stroke-width="7"></path></g><g transform="translate(521 61)"><path d="M7.8 -7.7C10.7 -4.8 14.2 -2.4 14.2 0C14.2 2.4 10.7 4.8 7.7 7.7C4.8 10.5 2.4 13.9 -0.5 14.4C-3.5 14.9 -7 12.7 -10.3 9.8C-13.6 7 -16.7 3.5 -17.3 -0.6C-17.9 -4.7 -15.9 -9.3 -12.6 -12.2C-9.3 -15.1 -4.7 -16.3 -1.1 -15.2C2.4 -14.1 4.8 -10.7 7.8 -7.7Z" stroke="#07434d" fill="none" stroke-width="7"></path></g><g transform="translate(7 106)"><path d="M2.7 -2.8C3.3 -2.1 3.5 -1 3.3 -0.2C3.2 0.7 2.6 1.4 2 2.1C1.4 2.9 0.7 3.7 0 3.7C-0.6 3.6 -1.2 2.7 -1.7 2C-2.3 1.2 -2.8 0.6 -2.8 0C-2.8 -0.6 -2.2 -1.1 -1.7 -1.9C-1.1 -2.6 -0.6 -3.6 0.2 -3.8C1 -4.1 2.1 -3.6 2.7 -2.8Z" stroke="#07434d" fill="none" stroke-width="7"></path></g></g></svg>