<svg width="1000" height="500" viewBox="0 0 1000 500" fill="none" xmlns="http://www.w3.org/2000/svg">
<g clip-path="url(#clip0_25_16)">
<rect x="242" y="84.9251" width="200" height="200" rx="20" transform="rotate(-9.18516 242 84.9251)" fill="#F25C54"/>
<rect x="619" y="170.925" width="200" height="200" rx="20" transform="rotate(-9.18516 619 170.925)" fill="#8CB369"/>
<rect x="210.34" y="140" width="200" height="200" rx="20" transform="rotate(18.4634 210.34 140)" fill="#EB7795"/>
<rect x="393.642" y="110" width="200" height="200" rx="20" transform="rotate(8.23374 393.642 110)" fill="#F4A261"/>
<rect x="341.084" y="243" width="200" height="200" rx="20" transform="rotate(1.16999 341.084 243)" fill="#A06EC4"/>
<rect x="491.547" y="67.3631" width="200" height="200" rx="20" transform="rotate(-4.24836 491.547 67.3631)" fill="#E9C46A"/>
<rect x="529" y="243.137" width="200" height="200" rx="20" transform="rotate(-8.66657 529 243.137)" fill="#61A5C2"/>
</g>
<path d="M373.346 293.776C373.645 293.776 374.007 293.979 374.434 294.384C374.882 294.768 375.106 295.099 375.106 295.376C375.106 296.677 375.063 298.459 374.978 300.72C374.957 301.275 374.935 301.947 374.914 302.736C374.893 303.504 374.882 304.4 374.882 305.424C374.882 308.667 375.074 311.056 375.458 312.592C375.437 313.104 375.234 313.477 374.85 313.712C374.466 313.925 374.082 314.032 373.698 314.032C372.845 314.032 372.279 313.733 372.002 313.136C371.746 312.539 371.618 311.685 371.618 310.576C371.618 306.459 371.661 302.672 371.746 299.216C369.293 301.947 367.383 304.24 366.018 306.096C366.018 306.096 365.826 306.224 365.442 306.48C365.079 306.8 364.781 306.96 364.546 306.96C363.991 306.96 363.533 306.821 363.17 306.544C362.807 306.267 362.455 305.861 362.114 305.328L360.578 303.152C359.511 301.659 358.733 300.528 358.242 299.76C358.242 301.723 358.338 304.389 358.53 307.76C358.679 309.701 358.754 311.163 358.754 312.144C358.754 312.656 358.626 313.093 358.37 313.456C358.114 313.797 357.709 313.968 357.154 313.968C356.599 313.968 356.141 313.861 355.778 313.648C355.437 313.435 355.255 313.115 355.234 312.688C355.255 312.325 355.266 311.728 355.266 310.896C355.266 309.232 355.213 307.205 355.106 304.816L355.042 303.088L354.978 300.848C354.957 300.187 354.935 299.419 354.914 298.544C354.893 297.648 354.882 296.677 354.882 295.632C354.882 294.352 355.575 293.712 356.962 293.712C357.389 293.712 357.815 293.819 358.242 294.032C358.69 294.245 359.021 294.555 359.234 294.96C359.405 295.707 360.034 296.944 361.122 298.672C362.21 300.4 363.277 302.021 364.322 303.536C365.261 302.341 366.029 301.445 366.626 300.848C367.65 299.803 368.493 298.832 369.154 297.936C369.837 297.04 370.573 295.963 371.362 294.704C371.554 294.448 371.831 294.235 372.194 294.064C372.557 293.872 372.941 293.776 373.346 293.776ZM393.99 312.464C393.99 312.933 393.734 313.328 393.222 313.648C392.732 313.968 392.273 314.128 391.846 314.128C391.036 314.128 390.385 314.032 389.894 313.84C389.425 313.627 388.988 313.243 388.582 312.688C388.028 313.179 387.27 313.552 386.31 313.808C385.35 314.043 384.465 314.16 383.654 314.16C382.332 314.16 381.244 313.808 380.39 313.104C379.537 312.379 379.11 311.323 379.11 309.936C379.11 309.339 379.27 308.795 379.59 308.304C379.91 307.792 380.348 307.344 380.902 306.96C381.521 306.555 382.225 306.245 383.014 306.032C383.804 305.797 384.625 305.68 385.478 305.68C385.926 305.68 386.46 305.765 387.078 305.936C387.697 306.107 388.177 306.288 388.518 306.48V305.968C388.518 304.816 388.241 304.027 387.686 303.6C387.132 303.152 386.236 302.928 384.998 302.928C384.636 302.928 384.273 303.003 383.91 303.152C383.569 303.301 383.174 303.504 382.726 303.76C382.129 304.08 381.564 304.24 381.03 304.24C380.838 304.24 380.657 304.112 380.486 303.856C380.316 303.579 380.23 303.333 380.23 303.12C380.23 302.501 380.518 301.968 381.094 301.52C381.692 301.072 382.396 300.741 383.206 300.528C384.017 300.293 384.742 300.176 385.382 300.176C386.022 300.176 386.758 300.304 387.59 300.56C388.422 300.795 389.105 301.125 389.638 301.552C390.278 302.107 390.769 302.757 391.11 303.504C391.473 304.229 391.654 305.029 391.654 305.904C391.654 306.181 391.633 306.597 391.59 307.152C391.548 307.749 391.526 308.261 391.526 308.688C391.526 308.88 391.505 309.168 391.462 309.552C391.42 310.021 391.398 310.395 391.398 310.672C391.398 310.928 391.494 311.152 391.686 311.344C391.878 311.515 392.102 311.6 392.358 311.6L393.254 311.568C393.489 311.568 393.67 311.653 393.798 311.824C393.926 311.995 393.99 312.208 393.99 312.464ZM383.686 311.632C384.604 311.632 385.372 311.536 385.99 311.344C386.609 311.152 387.356 310.8 388.23 310.288C388.316 309.925 388.369 309.445 388.39 308.848C387.217 308.293 386.246 308.016 385.478 308.016C384.604 308.016 383.825 308.176 383.142 308.496C382.46 308.816 382.118 309.381 382.118 310.192C382.118 310.597 382.289 310.939 382.63 311.216C382.972 311.493 383.324 311.632 383.686 311.632ZM398.582 314.128C398.155 314.128 397.793 314.053 397.494 313.904C397.195 313.755 397.014 313.595 396.95 313.424C396.715 312.571 396.598 311.451 396.598 310.064C396.598 307.504 396.641 305.424 396.726 303.824C396.811 301.925 396.854 300.101 396.854 298.352C396.854 297.84 396.79 297.093 396.662 296.112C396.641 295.941 396.609 295.632 396.566 295.184C396.523 294.736 396.502 294.32 396.502 293.936C396.502 293.467 396.662 293.093 396.982 292.816C397.323 292.539 397.761 292.4 398.294 292.4C398.721 292.4 399.062 292.539 399.318 292.816C399.595 293.072 399.734 293.424 399.734 293.872C399.734 294.555 399.755 295.515 399.798 296.752C399.841 297.904 399.862 298.768 399.862 299.344C399.862 299.984 399.841 300.837 399.798 301.904C399.755 302.544 399.734 303.013 399.734 303.312C399.734 304.251 399.745 305.029 399.766 305.648C400.555 304.859 401.59 303.931 402.87 302.864C404.15 301.797 405.142 301.051 405.846 300.624C406.593 300.176 407.083 299.952 407.318 299.952C407.766 299.952 408.15 300.048 408.47 300.24C408.79 300.432 408.95 300.709 408.95 301.072C408.95 301.435 408.897 301.723 408.79 301.936C408.683 302.149 408.491 302.363 408.214 302.576L404.086 305.584C404.555 305.819 404.95 306.117 405.27 306.48C405.611 306.843 405.953 307.291 406.294 307.824C407.019 309.019 407.595 309.893 408.022 310.448C408.47 311.003 408.875 311.28 409.238 311.28L410.038 311.248C410.187 311.248 410.315 311.333 410.422 311.504C410.55 311.675 410.614 311.92 410.614 312.24C410.614 312.731 410.369 313.125 409.878 313.424C409.409 313.723 408.875 313.872 408.278 313.872C407.446 313.872 406.71 313.552 406.07 312.912C405.43 312.251 404.822 311.365 404.246 310.256C403.414 308.677 402.593 307.739 401.782 307.44L399.734 309.104L399.862 312.592C399.862 313.147 399.713 313.541 399.414 313.776C399.137 314.011 398.859 314.128 398.582 314.128ZM412.329 306.672C412.329 305.371 412.617 304.293 413.193 303.44C413.769 302.565 414.569 301.744 415.593 300.976C415.892 300.763 416.393 300.581 417.097 300.432C417.801 300.261 418.42 300.176 418.953 300.176C419.593 300.176 420.265 300.315 420.969 300.592C421.694 300.848 422.281 301.147 422.729 301.488C423.518 302.064 424.062 302.736 424.361 303.504C424.66 304.251 424.809 305.147 424.809 306.192C424.809 306.64 424.553 307.077 424.041 307.504C423.55 307.909 423.017 308.112 422.441 308.112L421.225 308.08C420.606 308.08 419.721 308.101 418.569 308.144L417.897 308.176C417.428 308.219 417.076 308.24 416.841 308.24C416.5 308.24 416.03 308.197 415.433 308.112C415.518 309.115 415.892 309.904 416.553 310.48C417.214 311.035 417.929 311.312 418.697 311.312C420.041 311.312 420.98 311.045 421.513 310.512C421.961 310.192 422.26 309.989 422.409 309.904C422.558 309.819 422.793 309.776 423.113 309.776C423.454 309.776 423.753 309.936 424.009 310.256C424.265 310.576 424.393 310.896 424.393 311.216C424.393 311.579 424.169 311.952 423.721 312.336C423.294 312.699 422.708 313.083 421.961 313.488C421.556 313.659 421.001 313.808 420.297 313.936C419.593 314.064 419.006 314.128 418.537 314.128C417.79 314.128 416.958 313.915 416.041 313.488C415.124 313.04 414.441 312.549 413.993 312.016C413.545 311.483 413.15 310.725 412.809 309.744C412.489 308.763 412.329 307.739 412.329 306.672ZM418.697 305.808C420.212 305.808 421.321 305.755 422.025 305.648C421.982 305.029 421.79 304.528 421.449 304.144C421.108 303.739 420.638 303.397 420.041 303.12C419.849 303.035 419.678 302.971 419.529 302.928C419.38 302.885 419.209 302.864 419.017 302.864C418.036 302.864 417.204 303.131 416.521 303.664C415.86 304.197 415.465 304.88 415.337 305.712C416.404 305.776 417.524 305.808 418.697 305.808ZM434.768 302.736C434.597 302.608 434.459 302.48 434.352 302.352C434.245 302.203 434.192 301.947 434.192 301.584C434.192 301.179 434.331 300.869 434.608 300.656C434.907 300.421 435.248 300.304 435.632 300.304C436.379 300.304 437.019 300.496 437.552 300.88C438.107 301.264 438.512 301.797 438.768 302.48C439.237 301.605 439.835 301.008 440.56 300.688C441.285 300.347 442.288 300.176 443.568 300.176C444.08 300.176 444.603 300.336 445.136 300.656C445.691 300.955 446.192 301.328 446.64 301.776C447.003 302.245 447.312 302.832 447.568 303.536C447.824 304.219 447.952 304.837 447.952 305.392C447.952 305.712 447.931 306.235 447.888 306.96C447.845 307.728 447.824 308.336 447.824 308.784C447.824 310.277 448.112 311.195 448.688 311.536C448.773 311.579 448.933 311.632 449.168 311.696C449.403 311.76 449.573 311.824 449.68 311.888C449.808 311.952 449.872 312.048 449.872 312.176C449.893 312.688 449.701 313.115 449.296 313.456C448.912 313.776 448.443 313.936 447.888 313.936C447.056 313.936 446.405 313.712 445.936 313.264C445.467 312.816 445.136 312.133 444.944 311.216C444.837 310.875 444.784 310.373 444.784 309.712C444.784 309.349 444.805 308.763 444.848 307.952C444.912 307.312 444.944 306.629 444.944 305.904C444.944 305.157 444.731 304.507 444.304 303.952C443.877 303.376 443.291 303.088 442.544 303.088C442.096 303.088 441.627 303.227 441.136 303.504C440.645 303.76 440.304 304.08 440.112 304.464C439.792 305.125 439.579 305.797 439.472 306.48C439.216 307.803 439.088 309.072 439.088 310.288C439.088 310.587 439.109 311.163 439.152 312.016C439.152 312.08 439.152 312.24 439.152 312.496C439.152 312.731 439.12 312.955 439.056 313.168C439.013 313.381 438.928 313.573 438.8 313.744C438.715 313.829 438.555 313.915 438.32 314C438.085 314.085 437.883 314.128 437.712 314.128C437.413 314.128 437.04 314 436.592 313.744C436.144 313.488 435.877 313.2 435.792 312.88L435.76 312.432C435.76 312.261 435.781 312.005 435.824 311.664C436.08 310.171 436.208 308.869 436.208 307.76C436.208 307.269 436.197 306.896 436.176 306.64L436.144 305.168C436.144 304.72 436.016 304.293 435.76 303.888C435.504 303.461 435.173 303.077 434.768 302.736ZM464.695 303.728C464.865 304.027 465.004 304.464 465.111 305.04C465.217 305.595 465.271 306.096 465.271 306.544C465.271 307.141 465.175 307.888 464.983 308.784C464.791 309.659 464.631 310.245 464.503 310.544C463.351 312.933 461.132 314.128 457.847 314.128C456.801 314.128 455.777 313.787 454.775 313.104C453.772 312.4 453.057 311.579 452.631 310.64L452.407 310C452.385 309.915 452.268 309.595 452.055 309.04C451.863 308.464 451.767 308.027 451.767 307.728C451.767 306.853 451.98 305.84 452.407 304.688C452.833 303.536 453.324 302.619 453.879 301.936C454.241 301.445 454.935 301.029 455.959 300.688C456.983 300.325 457.889 300.144 458.679 300.144C460.151 300.144 461.335 300.421 462.231 300.976C463.148 301.531 463.969 302.448 464.695 303.728ZM461.751 308.88C461.836 308.731 461.911 308.464 461.975 308.08C462.039 307.696 462.071 307.248 462.071 306.736C462.071 306.117 461.953 305.509 461.719 304.912C461.505 304.315 461.185 303.803 460.759 303.376C460.737 303.333 460.663 303.269 460.535 303.184C460.407 303.077 460.204 302.981 459.927 302.896C459.649 302.789 459.297 302.736 458.871 302.736C458.039 302.736 457.335 302.981 456.759 303.472C456.183 303.963 455.745 304.571 455.447 305.296C455.169 306.021 455.031 306.736 455.031 307.44C455.031 307.632 455.095 308.027 455.223 308.624C455.351 309.221 455.447 309.605 455.511 309.776C455.681 310.075 456.012 310.427 456.503 310.832C456.993 311.216 457.548 311.408 458.167 311.408C459.127 311.408 459.873 311.184 460.407 310.736C460.961 310.288 461.409 309.669 461.751 308.88ZM468.401 302.928C468.102 302.885 467.857 302.757 467.665 302.544C467.494 302.331 467.409 302.075 467.409 301.776C467.409 301.627 467.441 301.467 467.505 301.296C467.59 301.125 467.707 300.976 467.857 300.848C468.134 300.613 468.507 300.389 468.977 300.176C469.467 299.984 469.819 299.749 470.033 299.472C470.246 299.195 470.353 298.672 470.353 297.904C470.353 297.584 470.331 297.307 470.289 297.072C470.267 296.837 470.257 296.656 470.257 296.528C470.257 296.059 470.427 295.707 470.769 295.472C471.11 295.237 471.505 295.12 471.953 295.12C472.507 295.12 472.881 295.259 473.073 295.536C473.286 295.813 473.393 296.325 473.393 297.072C473.393 297.797 473.361 298.427 473.297 298.96C473.233 299.472 473.094 299.931 472.881 300.336C473.179 300.336 473.67 300.315 474.353 300.272C475.291 300.229 475.942 300.208 476.305 300.208C476.667 300.208 476.987 300.304 477.265 300.496C477.542 300.667 477.681 300.912 477.681 301.232C477.681 301.68 477.585 302.011 477.393 302.224C477.201 302.437 476.923 302.576 476.561 302.64C475.686 302.875 474.449 303.013 472.849 303.056C472.806 303.888 472.785 304.795 472.785 305.776C472.785 307.419 472.881 308.677 473.073 309.552C473.201 310.235 473.414 310.736 473.713 311.056C474.033 311.355 474.502 311.504 475.121 311.504C475.441 311.504 475.697 311.461 475.889 311.376C476.102 311.291 476.219 311.237 476.241 311.216C476.497 311.067 476.731 310.992 476.945 310.992C477.243 310.992 477.457 311.088 477.585 311.28C477.734 311.472 477.809 311.728 477.809 312.048C477.809 312.645 477.489 313.147 476.849 313.552C476.209 313.936 475.387 314.128 474.385 314.128C473.254 314.128 472.294 313.797 471.505 313.136C470.737 312.453 470.278 311.557 470.129 310.448C469.915 309.445 469.809 308.037 469.809 306.224C469.809 305.435 469.851 304.379 469.937 303.056L468.401 302.928ZM480.112 307.216C480.112 306.405 480.261 305.595 480.56 304.784C480.859 303.952 481.253 303.195 481.744 302.512C482.235 301.829 483.013 301.275 484.08 300.848C485.147 300.4 486.096 300.176 486.928 300.176C487.781 300.176 488.645 300.293 489.52 300.528C490.416 300.763 491.035 301.125 491.376 301.616C492.165 302.725 492.56 303.813 492.56 304.88C492.56 305.456 492.432 305.947 492.176 306.352C491.941 306.757 491.6 307.195 491.152 307.664C490.789 308.048 490.213 308.304 489.424 308.432C488.656 308.56 487.888 308.624 487.12 308.624C486.629 308.624 486.032 308.581 485.328 308.496C484.624 308.389 483.941 308.261 483.28 308.112C483.323 308.539 483.429 308.955 483.6 309.36C483.771 309.765 483.973 310.075 484.208 310.288C484.635 310.693 485.072 310.949 485.52 311.056C485.989 311.163 486.587 311.216 487.312 311.216C488.08 311.216 488.795 311.088 489.456 310.832C489.989 310.64 490.427 310.544 490.768 310.544C491.173 310.544 491.483 310.672 491.696 310.928C491.909 311.163 492.016 311.472 492.016 311.856C492.016 312.389 491.707 312.827 491.088 313.168C490.469 313.509 489.755 313.765 488.944 313.936C488.155 314.085 487.515 314.16 487.024 314.16C486.021 314.16 485.051 313.979 484.112 313.616C483.173 313.253 482.395 312.741 481.776 312.08C481.264 311.483 480.859 310.768 480.56 309.936C480.261 309.083 480.112 308.176 480.112 307.216ZM487.088 302.896C486.619 302.896 486.149 302.992 485.68 303.184C485.211 303.355 484.827 303.6 484.528 303.92C484.144 304.325 483.877 304.656 483.728 304.912C483.6 305.147 483.515 305.477 483.472 305.904C484.005 306.075 485.115 306.16 486.8 306.16C487.717 306.16 488.421 306.021 488.912 305.744C489.424 305.467 489.68 305.104 489.68 304.656C489.68 304.208 489.403 303.803 488.848 303.44C488.293 303.077 487.707 302.896 487.088 302.896ZM504.578 306.8C504.749 306.907 505.079 307.109 505.57 307.408C506.082 307.685 506.423 308.016 506.594 308.4C506.765 308.784 506.85 309.317 506.85 310C506.85 310.768 506.626 311.451 506.178 312.048C505.73 312.624 505.154 313.072 504.45 313.392C503.938 313.627 503.309 313.808 502.562 313.936C501.837 314.064 501.261 314.128 500.834 314.128C500.407 314.128 499.853 314.064 499.17 313.936C498.509 313.808 498.05 313.691 497.794 313.584C497.133 313.2 496.557 312.731 496.066 312.176C495.597 311.621 495.362 311.056 495.362 310.48C495.362 310.053 495.501 309.723 495.778 309.488C496.055 309.232 496.418 309.104 496.866 309.104C497.079 309.104 497.303 309.189 497.538 309.36C497.773 309.509 497.933 309.669 498.018 309.84C498.253 310.395 498.647 310.811 499.202 311.088C499.757 311.365 500.322 311.504 500.898 311.504C501.645 311.504 502.338 311.387 502.978 311.152C503.618 310.896 503.938 310.555 503.938 310.128C503.938 309.936 503.885 309.787 503.778 309.68C503.693 309.552 503.565 309.424 503.394 309.296C503.095 309.083 502.647 308.912 502.05 308.784C501.453 308.635 501.069 308.539 500.898 308.496C500.023 308.304 499.17 308.016 498.338 307.632C497.506 307.227 496.845 306.747 496.354 306.192C495.863 305.637 495.618 304.923 495.618 304.048C495.618 303.472 495.831 302.875 496.258 302.256C496.685 301.616 497.165 301.168 497.698 300.912C498.082 300.763 498.722 300.603 499.618 300.432C500.535 300.261 501.154 300.176 501.474 300.176C501.965 300.176 502.498 300.229 503.074 300.336C503.65 300.421 504.087 300.571 504.386 300.784C504.962 301.125 505.431 301.488 505.794 301.872C506.157 302.235 506.338 302.651 506.338 303.12C506.338 303.355 506.285 303.611 506.178 303.888C506.071 304.144 505.943 304.304 505.794 304.368C505.474 304.517 505.101 304.592 504.674 304.592C504.482 304.592 504.322 304.539 504.194 304.432C504.087 304.325 503.938 304.155 503.746 303.92C503.511 303.557 503.287 303.344 503.074 303.28C502.818 303.216 502.445 303.141 501.954 303.056C501.463 302.949 501.133 302.896 500.962 302.896C500.471 302.896 499.959 303.035 499.426 303.312C498.914 303.589 498.658 303.909 498.658 304.272C498.658 304.464 498.733 304.613 498.882 304.72C499.053 304.827 499.223 304.923 499.394 305.008C499.586 305.093 499.714 305.147 499.778 305.168C500.226 305.381 500.717 305.563 501.25 305.712C501.805 305.861 502.146 305.957 502.274 306C503.426 306.277 504.194 306.544 504.578 306.8ZM529.663 303.728C529.834 304.027 529.973 304.464 530.079 305.04C530.186 305.595 530.239 306.096 530.239 306.544C530.239 307.12 530.175 307.76 530.047 308.464C529.919 309.168 529.802 309.712 529.695 310.096C528.223 312.784 526.047 314.128 523.167 314.128C522.101 314.128 521.013 313.776 519.903 313.072C518.794 312.368 518.026 311.557 517.599 310.64C517.023 308.827 516.735 307.664 516.735 307.152C516.735 306.299 516.917 305.392 517.279 304.432C517.663 303.472 518.143 302.64 518.719 301.936C519.103 301.445 519.765 301.029 520.703 300.688C521.642 300.325 522.495 300.144 523.263 300.144C524.757 300.144 526.015 300.432 527.039 301.008C528.085 301.563 528.959 302.469 529.663 303.728ZM526.879 308.88C526.986 308.667 527.039 307.952 527.039 306.736C527.039 306.117 526.922 305.509 526.687 304.912C526.474 304.315 526.154 303.803 525.727 303.376C525.685 303.333 525.567 303.269 525.375 303.184C525.183 303.077 524.917 302.981 524.575 302.896C524.255 302.789 523.882 302.736 523.455 302.736C522.261 302.736 521.386 303.216 520.831 304.176C520.277 305.136 519.999 306.224 519.999 307.44C519.999 307.632 520.063 308.027 520.191 308.624C520.319 309.221 520.415 309.605 520.479 309.776C520.65 310.075 520.991 310.427 521.503 310.832C522.037 311.216 522.613 311.408 523.231 311.408C524.191 311.408 524.949 311.184 525.503 310.736C526.079 310.267 526.538 309.648 526.879 308.88ZM533.049 302.736C532.879 302.608 532.74 302.48 532.633 302.352C532.527 302.203 532.473 301.947 532.473 301.584C532.473 301.179 532.612 300.869 532.889 300.656C533.188 300.421 533.529 300.304 533.913 300.304C534.66 300.304 535.3 300.496 535.833 300.88C536.388 301.264 536.793 301.797 537.049 302.48C537.519 301.605 538.116 301.008 538.841 300.688C539.567 300.347 540.569 300.176 541.849 300.176C542.361 300.176 542.884 300.336 543.417 300.656C543.972 300.955 544.473 301.328 544.921 301.776C545.284 302.245 545.593 302.832 545.849 303.536C546.105 304.219 546.233 304.837 546.233 305.392C546.233 305.712 546.212 306.235 546.169 306.96C546.127 307.728 546.105 308.336 546.105 308.784C546.105 310.277 546.393 311.195 546.969 311.536C547.055 311.579 547.215 311.632 547.449 311.696C547.684 311.76 547.855 311.824 547.961 311.888C548.089 311.952 548.153 312.048 548.153 312.176C548.175 312.688 547.983 313.115 547.577 313.456C547.193 313.776 546.724 313.936 546.169 313.936C545.337 313.936 544.687 313.712 544.217 313.264C543.748 312.816 543.417 312.133 543.225 311.216C543.119 310.875 543.065 310.373 543.065 309.712C543.065 309.349 543.087 308.763 543.129 307.952C543.193 307.312 543.225 306.629 543.225 305.904C543.225 305.157 543.012 304.507 542.585 303.952C542.159 303.376 541.572 303.088 540.825 303.088C540.377 303.088 539.908 303.227 539.417 303.504C538.927 303.76 538.585 304.08 538.393 304.464C538.073 305.125 537.86 305.797 537.753 306.48C537.497 307.803 537.369 309.072 537.369 310.288C537.369 310.587 537.391 311.163 537.433 312.016C537.433 312.08 537.433 312.24 537.433 312.496C537.433 312.731 537.401 312.955 537.337 313.168C537.295 313.381 537.209 313.573 537.081 313.744C536.996 313.829 536.836 313.915 536.601 314C536.367 314.085 536.164 314.128 535.993 314.128C535.695 314.128 535.321 314 534.873 313.744C534.425 313.488 534.159 313.2 534.073 312.88L534.041 312.432C534.041 312.261 534.063 312.005 534.105 311.664C534.361 310.171 534.489 308.869 534.489 307.76C534.489 307.269 534.479 306.896 534.457 306.64L534.425 305.168C534.425 304.72 534.297 304.293 534.041 303.888C533.785 303.461 533.455 303.077 533.049 302.736ZM557.619 302.928C557.321 302.885 557.075 302.757 556.883 302.544C556.713 302.331 556.627 302.075 556.627 301.776C556.627 301.627 556.659 301.467 556.723 301.296C556.809 301.125 556.926 300.976 557.075 300.848C557.353 300.613 557.726 300.389 558.195 300.176C558.686 299.984 559.038 299.749 559.251 299.472C559.465 299.195 559.571 298.672 559.571 297.904C559.571 297.584 559.55 297.307 559.507 297.072C559.486 296.837 559.475 296.656 559.475 296.528C559.475 296.059 559.646 295.707 559.987 295.472C560.329 295.237 560.723 295.12 561.171 295.12C561.726 295.12 562.099 295.259 562.291 295.536C562.505 295.813 562.611 296.325 562.611 297.072C562.611 297.797 562.579 298.427 562.515 298.96C562.451 299.472 562.313 299.931 562.099 300.336C562.398 300.336 562.889 300.315 563.571 300.272C564.51 300.229 565.161 300.208 565.523 300.208C565.886 300.208 566.206 300.304 566.483 300.496C566.761 300.667 566.899 300.912 566.899 301.232C566.899 301.68 566.803 302.011 566.611 302.224C566.419 302.437 566.142 302.576 565.779 302.64C564.905 302.875 563.667 303.013 562.067 303.056C562.025 303.888 562.003 304.795 562.003 305.776C562.003 307.419 562.099 308.677 562.291 309.552C562.419 310.235 562.633 310.736 562.931 311.056C563.251 311.355 563.721 311.504 564.339 311.504C564.659 311.504 564.915 311.461 565.107 311.376C565.321 311.291 565.438 311.237 565.459 311.216C565.715 311.067 565.95 310.992 566.163 310.992C566.462 310.992 566.675 311.088 566.803 311.28C566.953 311.472 567.027 311.728 567.027 312.048C567.027 312.645 566.707 313.147 566.067 313.552C565.427 313.936 564.606 314.128 563.603 314.128C562.473 314.128 561.513 313.797 560.723 313.136C559.955 312.453 559.497 311.557 559.347 310.448C559.134 309.445 559.027 308.037 559.027 306.224C559.027 305.435 559.07 304.379 559.155 303.056L557.619 302.928ZM573.459 293.712C573.459 294.267 573.448 294.917 573.427 295.664C573.405 296.389 573.384 296.944 573.363 297.328C573.299 298.416 573.267 299.504 573.267 300.592C573.267 301.403 573.299 302.245 573.363 303.12C574.024 302.16 574.739 301.456 575.507 301.008C576.275 300.56 577.203 300.336 578.291 300.336C579.08 300.336 579.816 300.688 580.499 301.392C581.181 302.096 581.619 302.917 581.811 303.856C581.875 304.688 581.907 305.701 581.907 306.896C581.907 307.664 581.949 308.667 582.035 309.904C582.077 310.373 582.195 310.811 582.387 311.216C582.6 311.621 582.899 311.824 583.283 311.824C583.475 311.824 583.624 311.813 583.731 311.792C583.859 311.771 583.976 311.76 584.083 311.76C584.381 311.76 584.584 311.835 584.691 311.984C584.819 312.133 584.883 312.347 584.883 312.624C584.883 313.136 584.627 313.52 584.115 313.776C583.603 314.032 583.133 314.16 582.707 314.16C581.171 314.16 580.115 313.52 579.539 312.24C579.219 311.515 579.016 310.576 578.931 309.424C578.845 308.251 578.803 306.885 578.803 305.328C578.803 303.792 578.28 303.024 577.235 303.024C576.659 303.024 576.072 303.333 575.475 303.952C574.899 304.549 574.419 305.349 574.035 306.352C573.651 307.333 573.459 308.357 573.459 309.424L573.491 312.752C573.491 313.221 573.309 313.573 572.947 313.808C572.584 314.021 572.243 314.128 571.923 314.128C571.453 314.128 571.027 313.989 570.643 313.712C570.259 313.413 570.067 313.083 570.067 312.72C570.216 311.12 570.291 308.443 570.291 304.688C570.291 304.005 570.237 301.477 570.131 297.104L570.035 294.16C570.035 293.691 570.248 293.285 570.675 292.944C571.101 292.581 571.581 292.4 572.115 292.4C572.584 292.4 572.925 292.507 573.139 292.72C573.352 292.933 573.459 293.264 573.459 293.712ZM586.549 306.768C586.549 306 586.688 305.285 586.965 304.624C587.243 303.941 587.648 303.237 588.181 302.512C588.715 301.787 589.451 301.221 590.389 300.816C591.328 300.389 592.352 300.176 593.461 300.176C594.315 300.176 595.136 300.357 595.925 300.72C596.736 301.061 597.461 301.488 598.101 302C598.187 302.149 598.336 302.427 598.549 302.832C598.763 303.216 598.912 303.568 598.997 303.888C599.104 304.208 599.157 304.539 599.157 304.88C599.157 306.309 598.635 307.269 597.589 307.76C596.544 308.229 595.221 308.464 593.621 308.464C592.021 308.464 590.72 308.357 589.717 308.144C589.76 308.549 589.867 308.955 590.037 309.36C590.208 309.765 590.411 310.075 590.645 310.288C591.072 310.693 591.488 310.96 591.893 311.088C592.32 311.195 592.885 311.248 593.589 311.248C594.656 311.248 595.488 311.045 596.085 310.64C596.64 310.277 597.067 310.096 597.365 310.096C597.771 310.096 598.08 310.224 598.293 310.48C598.507 310.715 598.613 311.024 598.613 311.408C598.613 312.219 598.091 312.88 597.045 313.392C596.021 313.904 594.859 314.16 593.557 314.16C592.533 314.16 591.52 313.979 590.517 313.616C589.515 313.253 588.715 312.741 588.117 312.08C587.712 311.397 587.349 310.565 587.029 309.584C586.709 308.603 586.549 307.664 586.549 306.768ZM593.589 302.8C593.12 302.8 592.629 302.885 592.117 303.056C591.627 303.205 591.243 303.44 590.965 303.76C590.624 304.123 590.368 304.453 590.197 304.752C590.048 305.051 589.952 305.424 589.909 305.872C590.144 305.872 590.368 305.883 590.581 305.904C590.795 305.925 590.997 305.947 591.189 305.968C592.128 306.053 592.832 306.096 593.301 306.096C594.24 306.096 594.955 305.957 595.445 305.68C595.957 305.403 596.213 305.029 596.213 304.56C596.213 304.112 595.925 303.707 595.349 303.344C594.795 302.981 594.208 302.8 593.589 302.8ZM621.718 305.968C621.718 306.949 621.473 307.781 620.982 308.464C620.492 309.125 619.841 309.712 619.03 310.224C617.921 310.821 616.63 311.131 615.158 311.152C615.073 311.408 615.03 311.675 615.03 311.952C615.03 312.208 615.169 312.4 615.446 312.528C615.745 312.635 616.268 312.72 617.014 312.784C617.633 312.827 618.326 312.965 619.094 313.2C619.884 313.413 620.502 313.659 620.95 313.936C621.505 314.341 621.889 314.779 622.102 315.248C622.337 315.717 622.454 316.304 622.454 317.008C622.454 317.925 622.028 318.693 621.174 319.312C620.342 319.952 619.361 320.421 618.23 320.72C617.1 321.019 616.108 321.168 615.254 321.168C614.23 321.168 613.356 321.04 612.63 320.784C611.926 320.549 611.254 320.219 610.614 319.792C610.166 319.472 609.814 319.067 609.558 318.576C609.302 318.085 609.174 317.573 609.174 317.04C609.174 316.507 609.345 315.995 609.686 315.504C610.049 315.013 610.486 314.587 610.998 314.224C611.51 313.883 611.99 313.648 612.438 313.52C612.268 313.307 612.14 313.125 612.054 312.976C611.99 312.805 611.958 312.613 611.958 312.4C611.958 311.675 612.14 311.067 612.502 310.576C611.478 310.235 610.668 309.627 610.07 308.752C609.494 307.877 609.206 306.853 609.206 305.68C609.206 304.912 609.388 304.219 609.75 303.6C610.113 302.96 610.614 302.352 611.254 301.776C612.342 300.795 613.846 300.304 615.766 300.304C616.022 300.304 616.374 300.347 616.822 300.432C617.27 300.517 617.708 300.635 618.134 300.784C618.817 300.485 619.617 300.176 620.534 299.856C621.452 299.536 622.07 299.376 622.39 299.376C622.881 299.376 623.244 299.461 623.478 299.632C623.734 299.781 623.862 300.123 623.862 300.656C623.862 301.147 623.574 301.499 622.998 301.712C622.444 301.925 621.601 302.128 620.47 302.32C621.302 303.323 621.718 304.539 621.718 305.968ZM615.062 308.528C616.3 308.528 617.196 308.272 617.75 307.76C618.326 307.248 618.614 306.48 618.614 305.456C618.614 303.771 617.622 302.928 615.638 302.928C614.87 302.928 614.262 303.013 613.814 303.184C613.388 303.355 613.036 303.643 612.758 304.048C612.374 304.56 612.182 305.253 612.182 306.128C612.182 306.811 612.46 307.387 613.014 307.856C613.59 308.304 614.273 308.528 615.062 308.528ZM612.182 317.264C612.182 317.627 612.513 317.936 613.174 318.192C613.857 318.469 614.582 318.608 615.35 318.608C616.204 318.608 617.078 318.448 617.974 318.128C618.892 317.829 619.35 317.424 619.35 316.912C619.35 316.165 618.689 315.685 617.366 315.472C616.897 315.387 616.214 315.227 615.318 314.992C615.212 314.971 615.084 314.939 614.934 314.896C614.806 314.853 614.668 314.811 614.518 314.768C614.049 314.939 613.537 315.291 612.982 315.824C612.449 316.379 612.182 316.859 612.182 317.264ZM638.352 303.728C638.523 304.027 638.662 304.464 638.768 305.04C638.875 305.595 638.928 306.096 638.928 306.544C638.928 307.376 638.747 308.56 638.384 310.096C636.912 312.784 634.736 314.128 631.856 314.128C630.79 314.128 629.702 313.776 628.592 313.072C627.483 312.368 626.715 311.557 626.288 310.64C625.712 308.805 625.424 307.643 625.424 307.152C625.424 306.299 625.606 305.392 625.968 304.432C626.352 303.472 626.832 302.64 627.408 301.936C627.771 301.445 628.422 301.029 629.36 300.688C630.299 300.325 631.152 300.144 631.92 300.144C633.414 300.144 634.683 300.432 635.728 301.008C636.774 301.563 637.648 302.469 638.352 303.728ZM635.568 308.88C635.675 308.603 635.728 307.888 635.728 306.736C635.728 306.117 635.611 305.509 635.376 304.912C635.163 304.315 634.843 303.803 634.416 303.376C634.374 303.333 634.256 303.269 634.064 303.184C633.872 303.077 633.606 302.981 633.264 302.896C632.944 302.789 632.571 302.736 632.144 302.736C630.95 302.736 630.075 303.216 629.52 304.176C628.966 305.136 628.688 306.224 628.688 307.44C628.688 307.653 628.742 308.059 628.848 308.656C628.976 309.253 629.083 309.627 629.168 309.776C629.232 309.925 629.392 310.139 629.648 310.416C629.926 310.672 630.256 310.907 630.64 311.12C631.046 311.312 631.462 311.408 631.888 311.408C632.848 311.408 633.616 311.184 634.192 310.736C634.768 310.267 635.227 309.648 635.568 308.88ZM646.055 295.44C646.055 296.592 645.991 298.277 645.863 300.496C645.735 302.629 645.671 304.261 645.671 305.392C645.671 305.691 645.693 306.309 645.735 307.248C645.714 307.611 645.586 307.888 645.351 308.08C645.117 308.251 644.839 308.336 644.519 308.336C644.178 308.336 643.869 308.251 643.591 308.08C643.314 307.909 643.143 307.685 643.079 307.408C642.823 305.659 642.695 303.568 642.695 301.136L642.727 296.144C642.727 295.355 642.823 294.715 643.015 294.224C643.229 293.712 643.677 293.456 644.359 293.456C644.935 293.456 645.362 293.648 645.639 294.032C645.917 294.395 646.055 294.864 646.055 295.44ZM644.359 310C645.81 310 646.535 310.544 646.535 311.632C646.535 312.187 646.354 312.699 645.991 313.168C645.65 313.616 645.213 313.84 644.679 313.84C644.039 313.84 643.517 313.648 643.111 313.264C642.706 312.859 642.503 312.389 642.503 311.856C642.503 311.387 642.674 310.96 643.015 310.576C643.378 310.192 643.826 310 644.359 310Z" fill="black"/>
<path d="M262.221 262.912C266.232 262.912 270.37 262.443 274.637 261.504C278.989 260.565 282.829 259.029 286.157 256.896C289.57 254.763 291.277 252.331 291.277 249.6C291.277 249.173 291.234 248.789 291.149 248.448C290.722 245.632 288.674 243.285 285.005 241.408C281.336 239.531 277.069 237.952 272.205 236.672C267.426 235.307 262.648 233.813 257.869 232.192C253.176 230.571 249.165 228.139 245.837 224.896C242.594 221.653 240.973 217.6 240.973 212.736C240.973 206.507 242.68 200.747 246.093 195.456C249.592 190.08 254.072 185.643 259.533 182.144C265.08 178.56 270.925 175.616 277.069 173.312C283.298 171.008 289.528 169.472 295.757 168.704C299.426 168.192 302.882 167.936 306.125 167.936C320.717 167.936 328.013 172.757 328.013 182.4C328.013 187.435 325.624 192.299 320.845 196.992C316.066 201.685 310.477 204.032 304.077 204.032C303.48 204.032 303.01 203.947 302.669 203.776C302.413 203.52 302.285 203.264 302.285 203.008C302.285 202.837 302.328 202.667 302.413 202.496C302.498 202.24 302.626 202.069 302.797 201.984C303.053 201.813 303.309 201.685 303.565 201.6C303.821 201.515 304.12 201.472 304.461 201.472C308.813 201.472 312.952 199.851 316.877 196.608C320.802 193.28 322.765 189.184 322.765 184.32C322.765 181.845 322.21 179.755 321.101 178.048C320.077 176.256 318.626 174.891 316.749 173.952C314.872 172.928 312.824 172.203 310.605 171.776C308.472 171.349 306.125 171.136 303.565 171.136C302.285 171.136 301.005 171.179 299.725 171.264C298.53 171.349 297.336 171.477 296.141 171.648C288.034 172.672 280.397 174.763 273.229 177.92C266.146 180.992 260.173 185.344 255.309 190.976C250.445 196.523 248.013 202.709 248.013 209.536C248.013 213.632 249.165 217.173 251.469 220.16C253.773 223.061 256.632 225.195 260.045 226.56C263.544 227.925 267.341 229.248 271.437 230.528C275.533 231.808 279.373 232.875 282.957 233.728C286.626 234.581 289.784 235.904 292.429 237.696C295.074 239.488 296.61 241.664 297.037 244.224L297.165 245.76C297.165 249.259 295.245 252.672 291.405 256C287.65 259.328 282.701 262.016 276.557 264.064C270.413 266.197 264.098 267.264 257.613 267.264C248.909 267.264 244.557 264.107 244.557 257.792C244.557 254.379 245.709 252.672 248.013 252.672C248.269 252.672 248.482 252.971 248.653 253.568C248.824 254.08 249.037 254.805 249.293 255.744C249.549 256.597 249.848 257.323 250.189 257.92C250.786 258.944 251.469 259.797 252.237 260.48C253.09 261.163 254.029 261.675 255.053 262.016C256.077 262.357 257.144 262.571 258.253 262.656C259.448 262.827 260.77 262.912 262.221 262.912ZM320.328 208L320.84 206.208C321.096 205.184 321.224 204.459 321.224 204.032C321.224 203.691 321.139 203.392 320.968 203.136C320.797 202.795 320.712 202.496 320.712 202.24C320.712 201.984 320.84 201.472 321.096 200.704C322.803 195.243 324.339 191.616 325.704 189.824C327.155 188.032 329.245 187.136 331.976 187.136C333.171 187.136 333.853 187.52 334.024 188.288C332.147 192.299 329.544 198.869 326.216 208H338.632C341.021 208 342.216 208.256 342.216 208.768C342.216 209.621 340.253 210.304 336.328 210.816C332.403 211.243 328.648 211.456 325.064 211.456C320.797 223.488 317.341 235.008 314.696 246.016C314.269 247.723 314.056 248.96 314.056 249.728C314.056 251.179 314.525 251.904 315.464 251.904C317.171 251.904 319.645 250.411 322.888 247.424C326.216 244.352 328.008 242.816 328.264 242.816C328.691 242.816 328.904 243.072 328.904 243.584C328.904 245.035 328.435 245.973 327.496 246.4C319.645 253.483 314.141 257.024 310.984 257.024C309.021 257.024 308.04 255.787 308.04 253.312C308.04 251.947 309.064 247.936 311.112 241.28C311.368 240.427 314.099 230.656 319.304 211.968C317.256 212.309 314.397 212.48 310.728 212.48C308.765 212.48 307.784 212.096 307.784 211.328C307.784 210.731 308.339 210.048 309.448 209.28C310.557 208.427 311.453 208 312.136 208H320.328ZM363.265 185.6C363.265 186.709 362.454 188.117 360.833 189.824C359.212 191.531 358.188 192.853 357.761 193.792C356.652 196.608 355.457 198.187 354.177 198.528C352.47 198.528 351.617 197.12 351.617 194.304C351.617 192.512 352.94 190.549 355.585 188.416C358.23 186.283 360.534 185.216 362.497 185.216C362.924 185.216 363.18 185.344 363.265 185.6ZM355.969 207.488C355.798 207.744 355.201 208.811 354.177 210.688C353.238 212.565 352.428 214.187 351.745 215.552C351.062 216.917 350.124 218.923 348.929 221.568C347.734 224.213 346.668 226.731 345.729 229.12C344.79 231.509 343.809 234.368 342.785 237.696C341.761 241.024 340.865 244.352 340.097 247.68C340.012 247.936 339.969 248.277 339.969 248.704C339.969 249.728 340.396 250.24 341.249 250.24C341.761 250.24 343.126 249.6 345.345 248.32C347.649 247.04 349.142 246.4 349.825 246.4C350.422 246.4 350.764 246.571 350.849 246.912C350.849 247.936 348.673 249.856 344.321 252.672C339.969 255.403 336.982 256.768 335.361 256.768C333.74 256.768 332.929 256 332.929 254.464C332.929 253.696 333.1 252.8 333.441 251.776C334.38 249.131 335.318 246.4 336.257 243.584C337.281 240.768 338.049 238.592 338.561 237.056C339.073 235.52 339.585 233.941 340.097 232.32C340.694 230.699 341.121 229.504 341.377 228.736C341.633 227.883 341.846 227.072 342.017 226.304C342.273 225.451 342.444 224.811 342.529 224.384C342.614 223.957 342.657 223.531 342.657 223.104C342.657 222.763 342.572 222.464 342.401 222.208C342.316 221.867 342.273 221.611 342.273 221.44C342.273 221.099 342.401 220.544 342.657 219.776C344.534 214.4 346.198 210.816 347.649 209.024C349.1 207.232 351.233 206.336 354.049 206.336C355.158 206.336 355.798 206.72 355.969 207.488ZM385.917 214.016C385.917 215.808 385.49 217.429 384.637 218.88C383.869 220.245 383.016 220.928 382.077 220.928C381.053 220.928 380.541 220.16 380.541 218.624C380.541 218.112 380.712 217.173 381.053 215.808C381.394 214.443 381.565 213.461 381.565 212.864C381.565 211.499 380.84 210.816 379.389 210.816C378.365 210.816 376.744 211.541 374.525 212.992C372.392 214.357 370.77 215.595 369.661 216.704C368.04 218.411 365.693 223.104 362.621 230.784C359.549 238.379 358.013 244.267 358.013 248.448C358.013 251.605 359.25 253.184 361.725 253.184C364.882 253.184 368.04 251.989 371.197 249.6C374.354 247.125 376.914 244.651 378.877 242.176C380.84 239.616 381.864 238.336 381.949 238.336C382.376 238.507 382.589 238.805 382.589 239.232C382.589 240.512 381.565 242.56 379.517 245.376C377.469 248.107 374.61 250.752 370.941 253.312C367.357 255.787 363.858 257.024 360.445 257.024C355.24 257.024 352.637 253.995 352.637 247.936C352.637 242.048 354.557 234.965 358.397 226.688C362.237 218.411 365.565 213.632 368.381 212.352C369.661 211.84 371.026 211.2 372.477 210.432C374.013 209.664 375.293 209.067 376.317 208.64C377.426 208.213 378.621 208 379.901 208C383.912 208 385.917 210.005 385.917 214.016ZM423.478 210.816C418.187 213.888 413.153 218.027 408.374 223.232C403.681 228.352 401.334 231.723 401.334 233.344C401.334 236.416 402.657 240.256 405.302 244.864C407.947 249.472 410.294 252.629 412.342 254.336C413.963 255.701 414.774 256.811 414.774 257.664C414.774 258.176 414.39 258.432 413.622 258.432C411.915 258.432 409.953 257.28 407.734 254.976C405.515 252.587 403.595 250.197 401.974 247.808C400.438 245.333 398.817 242.517 397.11 239.36L394.422 234.624C390.753 244.779 388.833 251.179 388.662 253.824C388.662 254.421 387.851 255.36 386.23 256.64C384.694 258.005 383.457 258.688 382.518 258.688C381.921 258.688 381.622 258.304 381.622 257.536C381.622 257.195 381.835 256.384 382.262 255.104C384.651 249.131 386.955 242.859 389.174 236.288C391.393 229.632 393.867 221.995 396.598 213.376C399.329 204.672 401.377 198.272 402.742 194.176C403.083 193.152 403.254 192.384 403.254 191.872C403.254 191.531 403.169 191.232 402.998 190.976C402.913 190.635 402.87 190.379 402.87 190.208C402.87 189.867 402.998 189.312 403.254 188.544C405.217 183.083 406.881 179.499 408.246 177.792C409.611 176 411.702 175.104 414.518 175.104C415.713 175.104 416.353 175.488 416.438 176.256C411.318 186.581 407.137 195.84 403.894 204.032C400.737 212.224 397.921 221.269 395.446 231.168L401.334 225.92C405.259 222.421 409.355 218.837 413.622 215.168C417.889 211.413 420.321 209.28 420.918 208.768C423.222 207.061 424.971 206.208 426.166 206.208C426.678 206.208 426.934 206.379 426.934 206.72C426.934 207.659 425.782 209.024 423.478 210.816ZM462.717 206.336C462.973 206.763 463.101 207.232 463.101 207.744C463.101 211.157 459.346 218.027 451.837 228.352C444.413 238.677 438.44 246.485 433.917 251.776V251.52C433.832 251.52 433.704 251.861 433.533 252.544C433.448 253.227 433.277 254.08 433.021 255.104C432.765 256.128 432.509 257.109 432.253 258.048C431.997 259.072 431.656 259.925 431.229 260.608C430.888 261.376 430.546 261.76 430.205 261.76C429.864 261.76 429.394 261.632 428.797 261.376C428.285 261.205 427.986 261.12 427.901 261.12C416.381 276.565 410.621 286.464 410.621 290.816C410.621 291.584 410.792 292.352 411.133 293.12C411.474 293.973 411.645 294.528 411.645 294.784C411.645 295.723 411.133 296.533 410.109 297.216C409.085 297.899 408.061 298.24 407.037 298.24C405.672 298.24 404.989 297.429 404.989 295.808C404.989 292.736 406.824 288.043 410.493 281.728C414.162 275.499 417.917 269.696 421.757 264.32C425.682 258.944 427.688 256.085 427.773 255.744C428.712 252.928 429.181 249.088 429.181 244.224C429.181 237.227 428.498 231.083 427.133 225.792C425.853 220.501 424.061 217.856 421.757 217.856C421.501 217.856 421.16 217.856 420.733 217.856L419.965 217.984C419.624 217.984 419.453 217.771 419.453 217.344C419.453 216.661 420.392 215.637 422.269 214.272C422.525 214.101 423.25 213.163 424.445 211.456C425.64 209.749 426.536 208.896 427.133 208.896C428.925 208.896 430.504 211.669 431.869 217.216C433.32 222.677 434.045 228.779 434.045 235.52C434.045 236.203 434.002 237.227 433.917 238.592C433.917 239.957 433.917 240.981 433.917 241.664C433.917 243.029 434.258 243.712 434.941 243.712C436.904 243.712 440.829 239.189 446.717 230.144C452.69 221.099 455.677 215.339 455.677 212.864C455.677 212.352 455.464 212.096 455.037 212.096C454.866 212.096 454.568 212.181 454.141 212.352C453.714 212.523 453.373 212.608 453.117 212.608C452.69 212.608 452.349 212.395 452.093 211.968C452.093 210.859 453.33 209.621 455.805 208.256C458.28 206.891 460.285 206.208 461.821 206.208C462.248 206.208 462.546 206.251 462.717 206.336ZM612.935 198.272C613.447 198.699 613.703 199.04 613.703 199.296C613.532 199.637 613.148 199.851 612.551 199.936C611.868 199.936 611.228 199.765 610.631 199.424C608.583 198.485 605.98 195.925 602.823 191.744C601.799 208.469 599.836 222.165 596.935 232.832C594.204 242.901 591.474 250.283 588.743 254.976C586.098 259.584 583.538 261.888 581.063 261.888C578.418 261.888 575.815 259.285 573.255 254.08C570.695 248.789 568.519 242.389 566.727 234.88C564.935 227.371 563.484 219.52 562.375 211.328C561.351 203.051 560.839 195.84 560.839 189.696C560.839 188.843 561.095 188.117 561.607 187.52C562.204 186.837 562.802 186.496 563.399 186.496C564.082 186.496 564.636 186.837 565.063 187.52C565.49 188.203 565.746 189.227 565.831 190.592C566.343 197.419 566.983 204.117 567.751 210.688C568.519 217.259 569.5 224.256 570.695 231.68C571.975 239.104 573.511 245.077 575.303 249.6C577.18 254.123 579.186 256.384 581.319 256.384C585.244 256.384 589.596 247.851 594.375 230.784C595.228 227.883 595.954 224.512 596.551 220.672C597.234 216.747 597.746 212.907 598.087 209.152C598.514 205.397 598.812 201.856 598.983 198.528C599.154 195.2 599.239 192.299 599.239 189.824C599.239 189.227 599.239 188.715 599.239 188.288C599.239 187.776 599.239 187.307 599.239 186.88C598.386 185.6 597.746 184.619 597.319 183.936C596.892 183.253 596.38 182.357 595.783 181.248C595.271 180.139 594.887 179.029 594.631 177.92C594.46 176.811 594.375 175.616 594.375 174.336C594.375 173.995 594.375 173.653 594.375 173.312C594.46 172.971 594.503 172.672 594.503 172.416C594.588 172.075 594.674 171.776 594.759 171.52C594.844 171.264 594.93 171.051 595.015 170.88C595.186 170.624 595.314 170.453 595.399 170.368C595.57 170.197 595.698 170.069 595.783 169.984C595.954 169.899 596.124 169.856 596.295 169.856C596.636 169.856 596.978 169.984 597.319 170.24C597.66 170.496 598.044 170.88 598.471 171.392C599.41 172.501 600.988 175.957 603.207 181.76C607.047 191.829 610.29 197.333 612.935 198.272ZM484.423 241.792C484.423 240.256 484.594 238.891 484.935 237.696C485.276 236.416 485.66 235.776 486.087 235.776C486.77 235.776 487.196 236.928 487.367 239.232C487.367 240.256 487.538 241.621 487.879 243.328C488.306 244.949 488.86 246.869 489.543 249.088C490.311 251.221 491.335 253.397 492.615 255.616C493.895 257.835 495.303 259.84 496.839 261.632C498.46 263.509 500.466 265.045 502.855 266.24C505.244 267.435 507.762 268.032 510.407 268.032C510.748 268.032 511.047 267.989 511.303 267.904C511.644 267.904 511.943 267.904 512.199 267.904C515.698 267.563 519.196 265.515 522.695 261.76C526.279 258.091 529.436 253.739 532.167 248.704C534.983 243.584 537.799 237.44 540.615 230.272C543.516 223.019 545.82 216.704 547.527 211.328C549.319 205.952 551.196 200.107 553.159 193.792C555.122 187.477 556.359 183.552 556.871 182.016C555.164 181.504 551.41 180.608 545.607 179.328C539.89 178.048 536.135 177.28 534.343 177.024C529.991 176.341 526.194 176 522.951 176C520.903 176 519.111 176.171 517.575 176.512C516.039 176.768 514.759 177.195 513.735 177.792C512.796 178.304 512.071 178.944 511.559 179.712C511.132 180.395 510.919 181.248 510.919 182.272C510.919 185.173 512.839 188.715 516.679 192.896C520.604 196.992 525.938 201.173 532.679 205.44C533.106 205.696 533.234 205.995 533.063 206.336C532.978 206.592 532.636 206.677 532.039 206.592C524.956 204.885 519.282 201.899 515.015 197.632C510.748 193.28 508.615 188.843 508.615 184.32C508.615 180.565 510.194 177.493 513.351 175.104C516.594 172.715 521.287 171.52 527.431 171.52C528.882 171.52 530.418 171.605 532.039 171.776C533.746 171.947 535.495 172.203 537.287 172.544C539.164 172.8 540.871 173.099 542.407 173.44C544.028 173.781 545.82 174.208 547.783 174.72C549.746 175.232 551.324 175.659 552.519 176C553.714 176.256 555.207 176.64 556.999 177.152C558.791 177.579 559.943 177.877 560.455 178.048C561.052 178.219 561.65 178.432 562.247 178.688C562.844 178.859 563.399 179.072 563.911 179.328C564.423 179.584 564.892 179.84 565.319 180.096C565.746 180.352 566.087 180.608 566.343 180.864C566.599 181.12 566.727 181.376 566.727 181.632C566.727 181.973 566.343 182.272 565.575 182.528C564.892 182.699 563.783 182.784 562.247 182.784H561.351C561.095 183.552 560.028 186.88 558.151 192.768C556.359 198.656 554.567 204.288 552.775 209.664C551.068 214.955 548.935 220.885 546.375 227.456C543.9 234.027 541.682 239.189 539.719 242.944C534.855 252.075 529.735 259.243 524.359 264.448C518.983 269.739 513.564 272.384 508.103 272.384C501.447 272.384 495.175 268.203 489.287 259.84C486.044 255.232 484.423 249.216 484.423 241.792ZM642.352 217.856C643.973 218.112 644.784 218.581 644.784 219.264C644.784 219.947 644.144 220.629 642.864 221.312C641.584 221.909 640.432 222.208 639.408 222.208C639.408 232.192 636.805 240.725 631.6 247.808C626.395 254.891 621.232 258.432 616.112 258.432C611.163 258.432 608.688 254.848 608.688 247.68C608.688 245.717 608.859 243.755 609.2 241.792C609.627 239.573 610.395 236.715 611.504 233.216C612.613 229.717 614.064 225.92 615.856 221.824C617.648 217.728 619.824 214.272 622.384 211.456C625.029 208.555 627.675 207.104 630.32 207.104H631.216C631.216 205.909 631.557 204.885 632.24 204.032C632.923 203.179 633.861 202.752 635.056 202.752C636.251 202.837 637.317 205.355 638.256 210.304C639.195 215.168 640.56 217.685 642.352 217.856ZM635.824 221.184C635.056 220.757 634.117 219.264 633.008 216.704C631.899 214.059 631.131 212.736 630.704 212.736C628.059 212.736 624.987 216.661 621.488 224.512C617.989 232.277 615.813 238.421 614.96 242.944C614.619 244.907 614.448 246.699 614.448 248.32C614.448 252.501 615.643 254.592 618.032 254.592C621.445 254.592 625.243 251.136 629.424 244.224C633.691 237.227 635.824 229.547 635.824 221.184ZM658.703 208L659.215 206.208C659.471 205.184 659.599 204.459 659.599 204.032C659.599 203.691 659.514 203.392 659.343 203.136C659.172 202.795 659.087 202.496 659.087 202.24C659.087 201.984 659.215 201.472 659.471 200.704C661.178 195.243 662.714 191.616 664.079 189.824C665.53 188.032 667.62 187.136 670.351 187.136C671.546 187.136 672.228 187.52 672.399 188.288C670.522 192.299 667.919 198.869 664.591 208H677.007C679.396 208 680.591 208.256 680.591 208.768C680.591 209.621 678.628 210.304 674.703 210.816C670.778 211.243 667.023 211.456 663.439 211.456C659.172 223.488 655.716 235.008 653.071 246.016C652.644 247.723 652.431 248.96 652.431 249.728C652.431 251.179 652.9 251.904 653.839 251.904C655.546 251.904 658.02 250.411 661.263 247.424C664.591 244.352 666.383 242.816 666.639 242.816C667.066 242.816 667.279 243.072 667.279 243.584C667.279 245.035 666.81 245.973 665.871 246.4C658.02 253.483 652.516 257.024 649.359 257.024C647.396 257.024 646.415 255.787 646.415 253.312C646.415 251.947 647.439 247.936 649.487 241.28C649.743 240.427 652.474 230.656 657.679 211.968C655.631 212.309 652.772 212.48 649.103 212.48C647.14 212.48 646.159 212.096 646.159 211.328C646.159 210.731 646.714 210.048 647.823 209.28C648.932 208.427 649.828 208 650.511 208H658.703ZM702.664 216.192C703.176 218.837 703.432 220.971 703.432 222.592C703.432 224.469 702.792 226.091 701.512 227.456C700.232 228.736 698.568 229.675 696.52 230.272C694.472 230.784 692.637 231.168 691.016 231.424C689.395 231.595 687.859 231.68 686.408 231.68C685.555 231.68 684.573 231.68 683.464 231.68C682.44 231.595 681.885 231.552 681.8 231.552C678.984 238.72 677.576 244.352 677.576 248.448C677.576 251.861 678.856 253.568 681.416 253.568C683.208 253.568 685.299 252.459 687.688 250.24C690.077 247.936 692.168 245.675 693.96 243.456C695.752 241.152 696.819 240 697.16 240C697.757 240 698.056 240.341 698.056 241.024C698.056 243.413 695.709 246.741 691.016 251.008C686.323 255.189 682.653 257.28 680.008 257.28C677.875 257.28 675.912 256.64 674.12 255.36C672.413 253.995 671.56 251.776 671.56 248.704C671.56 247.765 671.688 246.656 671.944 245.376C672.541 242.133 673.309 238.976 674.248 235.904C675.272 232.832 675.827 230.955 675.912 230.272C674.632 229.931 673.992 229.248 673.992 228.224C673.992 227.285 674.717 226.816 676.168 226.816H677.064C680.477 220.075 682.44 216.192 682.952 215.168C685.341 210.645 689.907 208.384 696.648 208.384C699.549 208.384 701.555 210.987 702.664 216.192ZM698.056 222.336C698.056 220.203 697.843 218.368 697.416 216.832C696.989 215.296 696.477 214.229 695.88 213.632C695.368 213.035 694.813 212.736 694.216 212.736C692.509 212.736 690.461 214.571 688.072 218.24C685.768 221.909 684.061 225.152 682.952 227.968C683.123 227.968 683.805 228.011 685 228.096C686.195 228.181 687.219 228.224 688.072 228.224C691.571 228.224 694.088 227.84 695.624 227.072C697.16 226.304 697.971 224.725 698.056 222.336ZM738.111 212.096C737.94 213.803 736.831 216.235 734.783 219.392C732.735 222.549 731.156 224.128 730.047 224.128C729.706 224.128 729.535 223.872 729.535 223.36C729.535 222.592 730.004 221.056 730.943 218.752C731.882 216.363 732.351 214.827 732.351 214.144C732.351 212.864 731.583 212.224 730.047 212.224C729.791 212.224 728.383 212.437 725.823 212.864C723.69 213.376 720.874 214.741 717.375 216.96C713.962 219.179 712.255 221.611 712.255 224.256C712.255 225.195 712.468 226.048 712.895 226.816C714.004 229.035 715.924 230.912 718.655 232.448C721.471 233.984 723.86 235.435 725.823 236.8C727.871 238.165 728.895 239.957 728.895 242.176C728.895 245.931 725.994 249.557 720.191 253.056C714.474 256.469 709.567 258.176 705.471 258.176C704.788 258.176 704.234 257.877 703.807 257.28C703.38 256.768 703.167 256.213 703.167 255.616C703.167 254.592 703.636 254.08 704.575 254.08C707.391 254.08 711.316 253.227 716.351 251.52C721.471 249.728 724.031 247.808 724.031 245.76C724.031 244.565 723.05 243.157 721.087 241.536C719.21 239.915 717.119 238.421 714.815 237.056C712.596 235.691 710.506 234.069 708.543 232.192C706.666 230.229 705.727 228.352 705.727 226.56C705.727 225.109 706.239 223.744 707.263 222.464C708.031 221.525 708.842 220.629 709.695 219.776C710.548 218.837 711.359 218.027 712.127 217.344C712.895 216.661 713.748 215.979 714.687 215.296C715.711 214.613 716.607 214.016 717.375 213.504C718.143 212.992 719.039 212.48 720.063 211.968C721.087 211.456 721.898 211.072 722.495 210.816C723.092 210.475 723.86 210.091 724.799 209.664C725.823 209.237 726.506 208.981 726.847 208.896C727.274 208.725 727.914 208.469 728.767 208.128C729.62 207.787 730.09 207.616 730.175 207.616C731.626 207.189 732.735 206.976 733.503 206.976C736.575 206.976 738.111 208.683 738.111 212.096Z" fill="black"/>
<defs>
<clipPath id="clip0_25_16">
<rect width="762" height="394" fill="white" transform="translate(119 53)"/>
</clipPath>
</defs>
</svg>
