<svg width="832" height="424" viewBox="0 0 832 424" fill="none" xmlns="http://www.w3.org/2000/svg">
<g clip-path="url(#clip0_2_4)">
<rect width="832" height="424" fill="black"/>
<path d="M203.227 145.545V291H170.273L117.716 214.58H116.864V291H77.375V145.545H110.898L162.602 221.682H163.739V145.545H203.227ZM362.815 218.273C362.815 234.466 359.667 248.126 353.369 259.253C347.072 270.332 338.573 278.737 327.872 284.466C317.171 290.148 305.24 292.989 292.077 292.989C278.819 292.989 266.84 290.124 256.139 284.395C245.486 278.618 237.01 270.19 230.713 259.111C224.463 247.984 221.338 234.371 221.338 218.273C221.338 202.08 224.463 188.443 230.713 177.364C237.01 166.237 245.486 157.832 256.139 152.151C266.84 146.421 278.819 143.557 292.077 143.557C305.24 143.557 317.171 146.421 327.872 152.151C338.573 157.832 347.072 166.237 353.369 177.364C359.667 188.443 362.815 202.08 362.815 218.273ZM322.19 218.273C322.19 209.561 321.03 202.222 318.71 196.256C316.438 190.242 313.052 185.697 308.554 182.619C304.103 179.494 298.611 177.932 292.077 177.932C285.543 177.932 280.027 179.494 275.528 182.619C271.078 185.697 267.692 190.242 265.372 196.256C263.099 202.222 261.963 209.561 261.963 218.273C261.963 226.985 263.099 234.348 265.372 240.361C267.692 246.327 271.078 250.872 275.528 253.997C280.027 257.075 285.543 258.614 292.077 258.614C298.611 258.614 304.103 257.075 308.554 253.997C313.052 250.872 316.438 246.327 318.71 240.361C321.03 234.348 322.19 226.985 322.19 218.273ZM370.273 177.364V145.545H496.693V177.364H452.943V291H414.023V177.364H370.273ZM511.555 291V145.545H616.384V177.364H551.043V202.364H610.987V234.182H551.043V259.182H616.1V291H511.555ZM714.378 191C713.999 186.265 712.223 182.572 709.051 179.92C705.926 177.269 701.168 175.943 694.776 175.943C690.704 175.943 687.366 176.44 684.761 177.435C682.205 178.382 680.311 179.684 679.08 181.341C677.848 182.998 677.209 184.892 677.162 187.023C677.067 188.775 677.375 190.361 678.085 191.781C678.843 193.154 680.027 194.409 681.636 195.545C683.246 196.634 685.306 197.629 687.815 198.528C690.325 199.428 693.308 200.233 696.764 200.943L708.696 203.5C716.745 205.205 723.634 207.454 729.364 210.247C735.093 213.041 739.78 216.331 743.426 220.119C747.072 223.86 749.747 228.074 751.452 232.761C753.204 237.449 754.103 242.562 754.151 248.102C754.103 257.667 751.712 265.763 746.977 272.392C742.242 279.021 735.472 284.063 726.665 287.52C717.905 290.976 707.37 292.705 695.06 292.705C682.418 292.705 671.385 290.834 661.963 287.094C652.588 283.353 645.296 277.6 640.088 269.835C634.927 262.023 632.323 252.032 632.276 239.864H669.776C670.012 244.314 671.125 248.055 673.114 251.085C675.102 254.116 677.896 256.412 681.494 257.974C685.14 259.537 689.473 260.318 694.491 260.318C698.705 260.318 702.233 259.797 705.074 258.756C707.915 257.714 710.069 256.27 711.537 254.423C713.005 252.577 713.762 250.47 713.81 248.102C713.762 245.877 713.028 243.936 711.608 242.278C710.235 240.574 707.962 239.059 704.79 237.733C701.617 236.36 697.332 235.081 691.935 233.898L677.446 230.773C664.567 227.979 654.411 223.315 646.977 216.781C639.591 210.2 635.921 201.227 635.969 189.864C635.921 180.631 638.384 172.558 643.355 165.645C648.374 158.685 655.311 153.263 664.165 149.381C673.066 145.498 683.27 143.557 694.776 143.557C706.518 143.557 716.674 145.522 725.244 149.452C733.814 153.382 740.42 158.921 745.06 166.071C749.747 173.173 752.115 181.483 752.162 191H714.378Z" fill="white"/>
</g>
<defs>
<clipPath id="clip0_2_4">
<rect width="832" height="424" fill="white"/>
</clipPath>
</defs>
</svg>
